<?xml version="1.0" standalone="no"?>
<!DOCTYPE svg PUBLIC "-//W3C//DTD SVG 1.1//EN" "http://www.w3.org/Graphics/SVG/1.1/DTD/svg11.dtd" >
<svg xmlns="http://www.w3.org/2000/svg" xmlns:xlink="http://www.w3.org/1999/xlink" version="1.1">
<metadata>
Created by FontForge 20170731 at Mon Sep  5 11:57:40 2016
 By Aleksey,,,
Copyright (c) 2016 by Chris Simpson.
</metadata>
<defs>
<font id="Metropolis-BlackItalic" horiz-adv-x="676" >
  <font-face 
    font-family="Metropolis Black"
    font-weight="900"
    font-style="italic"
    font-stretch="normal"
    units-per-em="1000"
    panose-1="0 0 10 0 0 0 0 0 0 0"
    ascent="800"
    descent="-200"
    x-height="517"
    cap-height="687"
    bbox="-323 -306 1210 987"
    underline-thickness="20"
    underline-position="-173"
    slope="-11.75"
    unicode-range="U+0020-2212"
  />
<missing-glyph horiz-adv-x="500" 
d="M410 795v-1000h-317v1000h317zM333 728h-165v-33h65v-37h-66v-33h166v33h-66v37h66v33zM267 599h-100v-104h166v34h-66v70zM233 565v-36h-33v36h33zM333 468h-166v-33h66v-37h-66v-33h100v70h66v33zM333 408h-33v-66h-133v-34h166v100zM333 286h-100v-56h34v23h33v-47
h-100v80h-33v-113h166v113zM333 113h-166v-113h166v113zM300 80v-47h-100v47h100zM333 -23h-166v-33h70l-70 -47v-33h166v33h-102l70 47h32v33z" />
    <glyph glyph-name=".notdef" horiz-adv-x="500" 
d="M410 795v-1000h-317v1000h317zM333 728h-165v-33h65v-37h-66v-33h166v33h-66v37h66v33zM267 599h-100v-104h166v34h-66v70zM233 565v-36h-33v36h33zM333 468h-166v-33h66v-37h-66v-33h100v70h66v33zM333 408h-33v-66h-133v-34h166v100zM333 286h-100v-56h34v23h33v-47
h-100v80h-33v-113h166v113zM333 113h-166v-113h166v113zM300 80v-47h-100v47h100zM333 -23h-166v-33h70l-70 -47v-33h166v33h-102l70 47h32v33z" />
    <glyph glyph-name=".null" horiz-adv-x="0" 
 />
    <glyph glyph-name="nonmarkingreturn" horiz-adv-x="333" 
 />
    <glyph glyph-name="space" unicode=" " horiz-adv-x="272" 
 />
    <glyph glyph-name="exclam" unicode="!" horiz-adv-x="328" 
d="M98 274l43 413h215l-128 -413h-130zM122 -12q-47 0 -76 30t-29 75q0 53 39 89.5t90 36.5q44 0 72.5 -30t28.5 -73q0 -52 -38 -90t-87 -38z" />
    <glyph glyph-name="quotedbl" unicode="&#x22;" horiz-adv-x="584" 
d="M139 370q-18 118 -18 174q0 71 33 116t89 45q34 0 56 -22.5t22 -56.5q0 -59 -114 -256h-68zM421 370q-18 118 -18 174q0 71 33 116t89 45q34 0 56 -22.5t22 -56.5q0 -59 -114 -256h-68z" />
    <glyph glyph-name="numbersign" unicode="#" horiz-adv-x="679" 
d="M650 404h-83l-57 -123h83l-61 -134h-83l-68 -147h-138l68 147h-89l-68 -147h-138l68 147h-81l61 134h81l57 123h-85l61 134h85l69 149h138l-69 -149h89l69 149h138l-69 -149h83zM372 281l57 123h-89l-57 -123h89z" />
    <glyph glyph-name="dollar" unicode="$" horiz-adv-x="647" 
d="M379 424q127 -29 179.5 -67.5t52.5 -116.5q0 -106 -83 -174.5t-210 -76.5l-13 -63h-110l14 68q-145 23 -232 115l126 119q83 -79 196 -79q54 0 84.5 21t30.5 46q0 14 -13 20t-61 18q-15 4 -24 6q-50 13 -76 20.5t-62 23t-53 33t-30 46t-13 65.5q0 99 75 168.5t198 80.5
l13 62h110l-13 -65q122 -17 202 -93l-116 -128q-76 65 -171 65q-46 0 -73 -21t-27 -46q0 -17 18 -25t81 -22z" />
    <glyph glyph-name="percent" unicode="%" horiz-adv-x="865" 
d="M239 338q-72 0 -114 41.5t-42 107.5q0 85 59.5 146t145.5 61q74 0 116 -42t42 -108q0 -85 -60 -145.5t-147 -60.5zM69 0l626 687h137l-626 -687h-137zM237 445q37 0 63.5 33t26.5 71q0 37 -36 37q-37 0 -63 -33t-26 -71q0 -37 35 -37zM611 -11q-73 0 -115.5 42t-42.5 108
q0 85 60.5 146t146.5 61q72 0 114 -42.5t42 -108.5q0 -84 -60 -145t-145 -61zM608 97q37 0 63.5 33t26.5 70q0 38 -36 38q-38 0 -64 -33t-26 -71q0 -37 36 -37z" />
    <glyph glyph-name="ampersand" unicode="&#x26;" horiz-adv-x="682" 
d="M672 300q-70 -94 -130 -154q24 -33 78 -106l-157 -57q-5 8 -20.5 30t-23.5 34q-97 -59 -201 -59q-97 0 -155 45.5t-58 124.5q0 88 47.5 140.5t144.5 92.5q-26 49 -26 85q0 94 71.5 157t165.5 63q86 0 138 -44t52 -115q0 -72 -46 -115.5t-147 -88.5q2 -3 52 -73
q50 55 91 119zM410 567q-30 0 -56 -26.5t-26 -57.5q0 -21 11 -43q52 18 77.5 40t25.5 58q0 29 -32 29zM250 129q39 0 91 31q-14 20 -75 113q-70 -41 -70 -98q0 -22 15 -34t39 -12z" />
    <glyph glyph-name="quotesingle" unicode="'" horiz-adv-x="302" 
d="M139 370q-18 118 -18 174q0 71 33 116t89 45q34 0 56 -22.5t22 -56.5q0 -59 -114 -256h-68z" />
    <glyph glyph-name="parenleft" unicode="(" horiz-adv-x="405" 
d="M194 -166q-76 57 -117 143.5t-41 190.5q0 161 88.5 305t237.5 231l86 -111q-229 -196 -229 -441q0 -119 84 -224z" />
    <glyph glyph-name="parenright" unicode=")" horiz-adv-x="405" 
d="M46 -174l-86 112q229 194 229 441q0 117 -84 224l109 93q76 -58 117 -143.5t41 -188.5q0 -163 -88.5 -306.5t-237.5 -231.5z" />
    <glyph glyph-name="asterisk" unicode="*" horiz-adv-x="389" 
d="M209 325q-19 0 -30.5 13t-7.5 30q4 18 23 56.5t23 51.5q-13 -8 -46 -37t-49 -38q-17 -9 -34 -3.5t-23 22.5t2 35.5t25 26.5q17 9 58 18t53 14q-10 4 -47 14t-51 19q-13 8 -13.5 26.5t12.5 35.5t32.5 22.5t32.5 -3.5t34.5 -38.5t29.5 -37.5q1 12 -2.5 54t0.5 54
q4 17 20.5 30t35.5 13t30.5 -13t7.5 -30q-4 -18 -24.5 -57t-24.5 -51q12 8 46 37t51 38q16 9 33.5 3.5t23.5 -22.5t-2 -35.5t-25 -26.5q-17 -9 -59 -18t-54 -14q10 -4 48 -14t52 -19q13 -8 13.5 -26.5t-12.5 -35.5t-32.5 -22.5t-32.5 3.5t-35 38.5t-30 37.5q0 -11 4.5 -54
t-0.5 -54q-4 -17 -20.5 -30t-35.5 -13z" />
    <glyph glyph-name="plus" unicode="+" horiz-adv-x="609" 
d="M585 408l-31 -149h-169l-36 -175h-160l36 175h-170l31 149h171l36 175h160l-36 -175h168z" />
    <glyph glyph-name="comma" unicode="," horiz-adv-x="311" 
d="M67 -160l-63 58q57 38 96 97q-39 0 -65 26.5t-26 68.5q0 51 38.5 90t86.5 39q46 0 73 -33t27 -88q0 -137 -167 -258z" />
    <glyph glyph-name="hyphen" unicode="-" horiz-adv-x="361" 
d="M26 199l33 158h284l-33 -158h-284z" />
    <glyph glyph-name="period" unicode="." horiz-adv-x="313" 
d="M115 -12q-47 0 -76 30t-29 75q0 53 39 89.5t90 36.5q44 0 72.5 -30t28.5 -73q0 -52 -38 -90t-87 -38z" />
    <glyph glyph-name="slash" unicode="/" horiz-adv-x="497" 
d="M-98 -74l510 817h204l-510 -817h-204z" />
    <glyph glyph-name="zero" unicode="0" horiz-adv-x="719" 
d="M315 -12q-124 0 -196.5 76t-72.5 201q0 114 50.5 213.5t141.5 160t200 60.5q124 0 197 -76t73 -201q0 -113 -50.5 -212.5t-142 -160.5t-200.5 -61zM327 164q74 0 128.5 80t54.5 170q0 51 -22 80t-61 29q-75 0 -129 -79.5t-54 -170.5q0 -51 22 -80t61 -29z" />
    <glyph glyph-name="one" unicode="1" horiz-adv-x="455" 
d="M142 0l99 469l-127 -70l-51 134l260 154h156l-143 -687h-194z" />
    <glyph glyph-name="two" unicode="2" horiz-adv-x="629" 
d="M-9 0l30 157l291 188q122 77 122 140q0 38 -56 38q-47 0 -89 -21.5t-93 -64.5l-103 132q136 130 301 130q110 0 175 -54.5t65 -142.5q0 -90 -52 -154t-152 -122l-105 -53h251l-36 -173h-549z" />
    <glyph glyph-name="three" unicode="3" horiz-adv-x="617" 
d="M263 -13q-188 0 -279 119l127 119q56 -65 152 -65q49 0 85 22t36 55q0 16 -19.5 22t-72.5 5l-90 -1l34 162h76q47 0 76.5 17t35.5 46q4 20 -14 29t-57 9q-80 0 -171 -73l-90 130q124 116 293 116q115 0 178.5 -46t63.5 -121q0 -68 -43 -114.5t-117 -67.5q48 -11 79 -46.5
t31 -87.5q0 -103 -93 -166t-221 -63z" />
    <glyph glyph-name="four" unicode="4" horiz-adv-x="666" 
d="M309 0l26 122h-330l12 146l389 418h240l-84 -404h83l-33 -160h-83l-26 -122h-194zM223 282h145l45 206z" />
    <glyph glyph-name="five" unicode="5" horiz-adv-x="629" 
d="M258 -13q-169 0 -269 108l130 126q65 -67 149 -67q52 0 92 29.5t40 69.5q0 43 -74 43q-71 0 -137 -45l-121 53l89 383h489l-36 -173h-311l-28 -94q55 34 125 34q86 0 141.5 -48t55.5 -132q0 -130 -95.5 -208.5t-239.5 -78.5z" />
    <glyph glyph-name="six" unicode="6" horiz-adv-x="659" 
d="M418 454q90 0 146.5 -49.5t56.5 -133.5q0 -121 -93.5 -202t-225.5 -81q-130 0 -196.5 67t-66.5 185q0 192 116.5 325.5t297.5 133.5q124 0 216 -73l-109 -138q-49 42 -115 42q-101 0 -163 -108q64 32 136 32zM299 152q47 0 84 30t37 70q0 23 -20 35t-51 12
q-70 0 -119 -66v-19q0 -34 15.5 -48t53.5 -14z" />
    <glyph glyph-name="seven" unicode="7" horiz-adv-x="608" 
d="M42 0l367 514h-317l36 173h542l-28 -146l-377 -541h-223z" />
    <glyph glyph-name="eight" unicode="8" horiz-adv-x="636" 
d="M274 -12q-116 0 -190 47t-74 129q0 134 161 197q-76 40 -76 125q0 101 90 157t212 56q108 0 178.5 -45.5t70.5 -122.5q0 -121 -140 -182q91 -44 91 -139q0 -106 -95 -164t-228 -58zM339 420q42 2 78 28t36 57q0 35 -64 35q-43 0 -77 -24.5t-34 -56.5q0 -17 17 -27t44 -12
zM283 148q48 0 87 25t39 59q0 17 -22 27.5t-54 12.5q-47 -2 -86 -27.5t-39 -59.5q0 -37 75 -37z" />
    <glyph glyph-name="nine" unicode="9" horiz-adv-x="660" 
d="M393 699q130 0 196.5 -67t66.5 -185q0 -192 -116.5 -325.5t-297.5 -133.5q-124 0 -216 73l109 138q49 -42 115 -42q101 0 163 108q-64 -32 -136 -32q-90 0 -146.5 49.5t-56.5 133.5q0 121 93.5 202t225.5 81zM346 388q70 0 119 66v19q0 34 -15.5 48t-53.5 14
q-47 0 -84 -30t-37 -70q0 -23 20 -35t51 -12z" />
    <glyph glyph-name="colon" unicode=":" horiz-adv-x="315" 
d="M184 313q-47 0 -76.5 30t-29.5 76q0 52 39 88.5t90 36.5q44 0 73 -30.5t29 -73.5q0 -51 -38 -89t-87 -38zM116 -12q-47 0 -76 30t-29 75q0 53 39 89.5t90 36.5q44 0 72.5 -30t28.5 -73q0 -52 -38 -90t-87 -38z" />
    <glyph glyph-name="semicolon" unicode=";" horiz-adv-x="314" 
d="M202 403q-47 0 -76 30t-29 75q0 53 39 89.5t90 36.5q44 0 72.5 -30t28.5 -73q0 -52 -38 -90t-87 -38zM70 -160l-63 58q57 38 96 97q-39 0 -65 26.5t-26 68.5q0 51 38.5 90t86.5 39q46 0 73 -33t27 -88q0 -137 -167 -258z" />
    <glyph glyph-name="less" unicode="&#x3c;" horiz-adv-x="599" 
d="M494 78l-435 189l30 153l514 189l-29 -150l-356 -116l306 -114z" />
    <glyph glyph-name="equal" unicode="=" horiz-adv-x="609" 
d="M81 382l31 149h499l-31 -149h-499zM32 148l31 149h499l-31 -149h-499z" />
    <glyph glyph-name="greater" unicode="&#x3e;" horiz-adv-x="599" 
d="M32 78l30 151l355 114l-306 116l29 150l436 -189l-30 -153z" />
    <glyph glyph-name="question" unicode="?" horiz-adv-x="507" 
d="M159 264l30 150q54 0 103 22.5t49 51.5q0 38 -58 38t-112 -44l-92 119q115 98 253 98q94 0 150.5 -48t56.5 -126q0 -82 -56.5 -145t-140.5 -82l-7 -34h-176zM220 -12q-47 0 -76 30t-29 75q0 53 39 89.5t90 36.5q44 0 72.5 -30t28.5 -73q0 -52 -38 -90t-87 -38z" />
    <glyph glyph-name="at" unicode="@" horiz-adv-x="880" 
d="M346 -116q-141 0 -226 82.5t-85 212.5q0 93 44 184.5t115 160t165.5 110.5t190.5 42q141 0 225 -79t84 -197q0 -81 -37.5 -157t-103 -124t-139.5 -48q-97 0 -114 75q-71 -73 -153 -73q-64 0 -100 37t-36 100q0 110 86.5 204.5t188.5 94.5q85 0 115 -65l22 52l153 -12
q-17 -43 -37 -91.5t-31 -74.5t-21.5 -52.5t-14.5 -42t-4 -25.5q0 -35 38 -35q40 0 74 38.5t51 92t17 103.5q0 105 -73.5 171t-200.5 66q-117 0 -224 -63.5t-171.5 -167.5t-64.5 -217q0 -115 75.5 -188t203.5 -73q109 0 225 61l15 -33q-124 -69 -252 -69zM397 202
q44 0 80 42.5t36 86.5q0 23 -13 36t-36 13q-47 0 -84.5 -40t-37.5 -86q0 -25 14.5 -38.5t40.5 -13.5z" />
    <glyph glyph-name="A" unicode="A" horiz-adv-x="775" 
d="M505 0l-16 92h-239l-54 -92h-223l407 687h222l-2 -4l120 -683h-215zM335 235h128l-29 167z" />
    <glyph glyph-name="B" unicode="B" horiz-adv-x="711" 
d="M6 0l143 687h364q86 0 139.5 -43t53.5 -110q0 -58 -35 -106t-94 -74q43 -20 68 -58.5t25 -86.5q0 -96 -80 -152.5t-193 -56.5h-391zM287 420h124q40 0 65 20.5t25 52.5q-1 31 -56 31h-137zM233 163h153q41 0 67.5 21t26.5 55t-59 34h-165z" />
    <glyph glyph-name="C" unicode="C" horiz-adv-x="711" 
d="M362 -12q-129 0 -221 90t-92 220q0 103 60.5 196t160.5 149t209 56q85 0 157 -35t115 -91l-160 -114q-38 64 -121 64q-86 0 -155 -68.5t-69 -152.5q0 -62 39 -100t92 -38q39 0 84 21.5t76 54.5l123 -136q-57 -51 -140 -83.5t-158 -32.5z" />
    <glyph glyph-name="D" unicode="D" horiz-adv-x="760" 
d="M6 0l143 687h250q154 0 252 -80.5t98 -206.5q0 -107 -65 -199t-176 -146.5t-239 -54.5h-263zM237 176h88q92 0 159 64t67 153q0 52 -40.5 85t-103.5 33h-100z" />
    <glyph glyph-name="E" unicode="E" horiz-adv-x="651" 
d="M666 514h-359l-15 -77h326l-36 -173h-327l-18 -91h358l-36 -173h-553l143 687h553z" />
    <glyph glyph-name="F" unicode="F" horiz-adv-x="651" 
d="M666 514h-359l-19 -97h326l-36 -173h-328l-50 -244h-194l143 687h553z" />
    <glyph glyph-name="G" unicode="G" horiz-adv-x="745" 
d="M378 253l30 143h322l-61 -292q-64 -57 -143 -86.5t-157 -29.5q-139 0 -230 87t-91 215q0 107 65 202.5t167.5 151t211.5 55.5q84 0 154 -34t114 -92l-160 -114q-36 64 -119 64q-88 0 -162 -72t-74 -155q0 -57 38 -94.5t98 -37.5t119 38l10 51h-132z" />
    <glyph glyph-name="H" unicode="H" horiz-adv-x="759" 
d="M594 687h194l-143 -687h-193l53 264h-251l-54 -264h-194l143 687h194l-50 -250h251z" />
    <glyph glyph-name="I" unicode="I" horiz-adv-x="321" 
d="M10 0l143 687h194l-143 -687h-194z" />
    <glyph glyph-name="J" unicode="J" horiz-adv-x="546" 
d="M200 -12q-73 0 -136.5 34.5t-91.5 85.5l143 109q8 -25 28 -39t43 -14q39 0 71.5 26t40.5 62l90 435h194l-98 -471q-21 -103 -99.5 -165.5t-184.5 -62.5z" />
    <glyph glyph-name="K" unicode="K" horiz-adv-x="717" 
d="M6 0l143 687h194l-52 -243l268 243h247l-321 -292l187 -395h-221l-121 260l-89 -78l-41 -182h-194z" />
    <glyph glyph-name="L" unicode="L" horiz-adv-x="597" 
d="M238 173h318l-36 -173h-514l143 687h194z" />
    <glyph glyph-name="M" unicode="M" horiz-adv-x="876" 
d="M6 0l143 687h192l114 -328l254 328h196l-143 -687h-194l79 368l-250 -328l-118 328l-79 -368h-194z" />
    <glyph glyph-name="N" unicode="N" horiz-adv-x="776" 
d="M6 0l143 687h192l191 -368l79 368h194l-143 -687h-191l-192 368l-79 -368h-194z" />
    <glyph glyph-name="O" unicode="O" horiz-adv-x="814" 
d="M363 -12q-137 0 -226.5 87t-89.5 214q0 107 64.5 203t166 151.5t208.5 55.5q137 0 227 -86.5t90 -213.5q0 -107 -64.5 -203t-166 -152t-209.5 -56zM375 164q87 0 159 73t72 155q0 56 -37 93.5t-94 37.5q-87 0 -159 -73t-72 -155q0 -57 37 -94t94 -37z" />
    <glyph glyph-name="P" unicode="P" horiz-adv-x="670" 
d="M6 0l143 687h323q100 0 161 -55t61 -145q0 -121 -89.5 -200.5t-219.5 -79.5h-141l-44 -207h-194zM280 383h113q38 0 70.5 28t32.5 60q0 40 -64 40h-125z" />
    <glyph glyph-name="Q" unicode="Q" horiz-adv-x="814" 
d="M803 399q0 -134 -99 -248l44 -45l-109 -106l-51 53q-109 -65 -225 -65q-137 0 -226.5 87t-89.5 214q0 107 64.5 203t166 151.5t208.5 55.5q137 0 227 -86.5t90 -213.5zM375 164q42 0 86 21l-47 49l109 106l51 -53q32 53 32 105q0 56 -37 93.5t-94 37.5q-87 0 -159 -73
t-72 -155q0 -57 37 -94t94 -37z" />
    <glyph glyph-name="R" unicode="R" horiz-adv-x="721" 
d="M694 487q0 -88 -50 -157t-133 -100l139 -230h-216l-125 207h-65l-44 -207h-194l143 687h323q100 0 161 -55t61 -145zM307 511l-27 -128h113q38 0 70.5 28t32.5 60q0 40 -64 40h-125z" />
    <glyph glyph-name="S" unicode="S" horiz-adv-x="647" 
d="M285 -12q-92 0 -173 32t-135 89l126 119q83 -79 196 -79q54 0 84.5 21t30.5 46q0 14 -13 20t-61 18q-15 4 -24 6q-50 13 -76 20.5t-62 23t-53 33t-30 46t-13 65.5q0 108 88 179.5t228 71.5q165 0 269 -98l-116 -128q-76 65 -171 65q-46 0 -73 -21t-27 -46q0 -17 18 -25
t81 -22q127 -29 179.5 -67.5t52.5 -116.5q0 -113 -93.5 -182.5t-232.5 -69.5z" />
    <glyph glyph-name="T" unicode="T" horiz-adv-x="645" 
d="M172 0l107 514h-203l36 173h600l-36 -173h-203l-107 -514h-194z" />
    <glyph glyph-name="U" unicode="U" horiz-adv-x="761" 
d="M336 -12q-148 0 -224.5 92.5t-47.5 232.5l78 374h194l-79 -380q-13 -66 12 -104.5t79 -38.5q62 0 113.5 46t65.5 113l75 364h194l-81 -390q-28 -139 -133.5 -224t-245.5 -85z" />
    <glyph glyph-name="V" unicode="V" horiz-adv-x="749" 
d="M614 687h223l-407 -687h-222l2 4l-120 683h215l71 -402z" />
    <glyph glyph-name="W" unicode="W" horiz-adv-x="1076" 
d="M145 0l-48 687h206v-397l217 397h209l48 -397l168 397h212l-333 -687h-196l-58 397l-229 -397h-196z" />
    <glyph glyph-name="X" unicode="X" horiz-adv-x="738" 
d="M823 687l-324 -351l168 -336h-218l-91 182l-168 -182h-240l324 351l-168 336h218l91 -182l168 182h240z" />
    <glyph glyph-name="Y" unicode="Y" horiz-adv-x="709" 
d="M201 0l50 226l-168 461h180l106 -293l217 293h218l-359 -461l-50 -226h-194z" />
    <glyph glyph-name="Z" unicode="Z" horiz-adv-x="667" 
d="M-10 0l26 145l403 369h-316l36 173h584l-28 -145l-400 -369h326l-36 -173h-595z" />
    <glyph glyph-name="bracketleft" unicode="[" horiz-adv-x="399" 
d="M-23 -160l177 849h295l-25 -121h-148l-127 -607h148l-25 -121h-295z" />
    <glyph glyph-name="backslash" unicode="\" horiz-adv-x="489" 
d="M253 -74l-170 817h196l170 -817h-196z" />
    <glyph glyph-name="bracketright" unicode="]" horiz-adv-x="398" 
d="M-48 -160l25 121h148l127 607h-148l25 121h295l-177 -849h-295z" />
    <glyph glyph-name="asciicircum" unicode="^" horiz-adv-x="486" 
d="M68 413l200 274h129l85 -274h-125l-43 160l-112 -160h-134z" />
    <glyph glyph-name="underscore" unicode="_" horiz-adv-x="592" 
d="M-89 -159l21 98h596l-21 -98h-596z" />
    <glyph glyph-name="grave" unicode="`" horiz-adv-x="399" 
d="M281 574l-124 136l167 28l78 -164h-121z" />
    <glyph glyph-name="a" unicode="a" 
d="M486 517h193l-108 -517h-193l11 52q-74 -64 -167 -64q-91 0 -144.5 58.5t-53.5 153.5q0 131 82.5 230t203.5 99q109 0 161 -84zM208 221q0 -34 22 -53.5t62 -19.5q58 0 101.5 47t43.5 103q0 33 -20 52t-54 19q-62 0 -108.5 -45t-46.5 -103z" />
    <glyph glyph-name="b" unicode="b" 
d="M454 529q91 0 144.5 -58t53.5 -153q0 -132 -82.5 -231t-203.5 -99q-109 0 -160 82l-15 -70h-193l145 699h193l-49 -235q75 65 167 65zM314 148q61 0 107.5 45.5t46.5 102.5q0 34 -22 53.5t-61 19.5q-49 0 -89.5 -35t-52.5 -83l-2 -11q-2 -14 -2 -21q0 -33 20 -52t55 -19z
" />
    <glyph glyph-name="c" unicode="c" horiz-adv-x="556" 
d="M273 -12q-107 0 -177.5 67.5t-70.5 166.5q0 82 50 153.5t128 112.5t161 41q134 0 204 -102l-140 -92q-22 34 -74 34q-55 0 -101.5 -46t-46.5 -98q0 -33 22 -55t56 -22q28 0 58.5 14t49.5 33l113 -114q-99 -93 -232 -93z" />
    <glyph glyph-name="d" unicode="d" 
d="M523 699h193l-145 -699h-193l11 52q-74 -64 -167 -64q-91 0 -144.5 58.5t-53.5 153.5q0 131 82.5 230t203.5 99q108 0 161 -83zM208 221q0 -34 22 -53.5t62 -19.5q58 0 101.5 47t43.5 103q0 33 -20 52t-54 19q-62 0 -108.5 -45t-46.5 -103z" />
    <glyph glyph-name="e" unicode="e" horiz-adv-x="560" 
d="M545 388q0 -87 -67.5 -133t-188.5 -42h-104q0 -38 20 -59.5t55 -21.5q63 0 131 48l93 -117q-41 -34 -103 -54.5t-118 -20.5q-110 0 -175 61t-65 161q0 133 92.5 226t227.5 93q89 0 145.5 -39.5t56.5 -101.5zM338 385q-72 0 -120 -71h92q78 0 80 45q0 11 -15 18.5t-37 7.5
z" />
    <glyph glyph-name="f" unicode="f" horiz-adv-x="395" 
d="M394 570q-54 0 -73 -53h102l-32 -152h-102l-76 -365h-184l76 365h-65l32 152h65l7 36q16 76 70 121.5t123 45.5q84 0 135 -58l-46 -102q-12 10 -32 10z" />
    <glyph glyph-name="g" unicode="g" horiz-adv-x="657" 
d="M466 517h194l-98 -470q-21 -100 -111.5 -159.5t-215.5 -59.5q-146 0 -235 73l81 124q37 -37 129 -37q62 0 109 25t55 60l5 23q-71 -58 -161 -58q-84 0 -136 55.5t-52 144.5q0 113 77.5 202t185.5 89q53 0 97 -23t62 -57zM293 198q42 0 78 26t47 63l3 15q1 3 1 10
q0 27 -17.5 42t-48.5 15q-50 0 -89.5 -34t-39.5 -79q0 -29 18 -43.5t48 -14.5z" />
    <glyph glyph-name="h" unicode="h" horiz-adv-x="627" 
d="M432 529q75 0 119.5 -44.5t44.5 -115.5q0 -7 -0.5 -12.5t-1.5 -14.5t-2.5 -17.5t-4.5 -25t-6.5 -32t-9.5 -45t-12 -57t-16 -74t-19 -91.5h-184q64 303 64 317q0 52 -52 52q-37 0 -67 -26t-36 -61v2l-59 -284h-193l145 699h193l-47 -224q59 54 144 54z" />
    <glyph glyph-name="i" unicode="i" horiz-adv-x="304" 
d="M231 573q-40 0 -66 26.5t-26 64.5q0 44 33 75.5t75 31.5q38 0 63.5 -26.5t25.5 -64.5q0 -43 -32 -75t-73 -32zM1 0l108 517h193l-108 -517h-193z" />
    <glyph glyph-name="j" unicode="j" horiz-adv-x="304" 
d="M231 572q-40 0 -65.5 27t-25.5 66q0 41 32 73t75 32q39 0 64 -27t25 -65q0 -42 -32 -74t-73 -32zM-14 -178q-70 0 -120 27l35 133q11 -5 39 -5q24 0 44 18.5t25 42.5l100 479h193l-108 -519q-16 -80 -73.5 -128t-134.5 -48z" />
    <glyph glyph-name="k" unicode="k" horiz-adv-x="588" 
d="M649 517l-229 -223l121 -294h-211l-57 171l-58 -54l-24 -117h-193l145 699h193l-75 -360l168 178h220z" />
    <glyph glyph-name="l" unicode="l" horiz-adv-x="303" 
d="M2 0l145 699h193l-145 -699h-193z" />
    <glyph glyph-name="m" unicode="m" horiz-adv-x="952" 
d="M749 529q77 0 125 -46t48 -118q0 -22 -33 -179q-23 -108 -39 -187h-184q66 317 65 323q-2 47 -49 47q-34 0 -62.5 -20.5t-36.5 -48.5q-19 -89 -63 -301h-184q66 317 65 323q-2 47 -48 47q-36 0 -65.5 -22.5t-35.5 -51.5l-1 -3l-61 -292h-193l108 517h193l-11 -53
q49 65 136 65q51 0 90.5 -23t59.5 -63q28 41 75.5 63.5t100.5 22.5z" />
    <glyph glyph-name="n" unicode="n" horiz-adv-x="627" 
d="M432 529q75 0 119.5 -44.5t44.5 -115.5q0 -7 -0.5 -12.5t-1.5 -14.5t-2.5 -17.5t-4.5 -25t-6.5 -32t-9.5 -45t-12 -57t-16 -74t-19 -91.5h-184q64 303 64 317q0 52 -52 52q-37 0 -67 -26t-36 -61l-59 -282h-193l108 517h193l-9 -41q58 53 143 53z" />
    <glyph glyph-name="o" unicode="o" horiz-adv-x="636" 
d="M275 -12q-108 0 -179 67.5t-71 166.5q0 124 105 215.5t233 91.5q108 0 178.5 -67t70.5 -166q0 -82 -49.5 -154t-127 -113t-160.5 -41zM284 148q56 0 103.5 46.5t47.5 98.5q0 33 -22.5 54.5t-57.5 21.5q-57 0 -105 -46t-48 -98q0 -33 23 -55t59 -22z" />
    <glyph glyph-name="p" unicode="p" 
d="M454 529q91 0 144.5 -58t53.5 -153q0 -132 -82.5 -231t-203.5 -99q-108 0 -161 83l-50 -243h-193l143 689h193l-11 -53q75 65 167 65zM314 148q61 0 107.5 45.5t46.5 102.5q0 34 -22 53.5t-61 19.5q-59 0 -102.5 -47t-43.5 -103q0 -33 20 -52t55 -19z" />
    <glyph glyph-name="q" unicode="q" 
d="M486 517h193l-143 -689h-193l47 225q-75 -65 -168 -65q-91 0 -144.5 58.5t-53.5 153.5q0 131 82.5 230t203.5 99q109 0 161 -84zM292 148q58 0 101.5 47t43.5 103q0 33 -20 52t-54 19q-62 0 -108.5 -45t-46.5 -103q0 -34 22 -53.5t62 -19.5z" />
    <glyph glyph-name="r" unicode="r" horiz-adv-x="463" 
d="M281 435q72 94 175 94l-21 -160q-74 0 -128.5 -42t-71.5 -111l-45 -216h-193l108 517h193z" />
    <glyph glyph-name="s" unicode="s" horiz-adv-x="504" 
d="M210 -12q-70 0 -132.5 22.5t-105.5 60.5l87 108q31 -25 76.5 -41t82.5 -16q32 0 51 11.5t19 28.5q0 13 -60 27q-38 9 -56.5 14t-46.5 16.5t-41 24.5t-23.5 35.5t-10.5 52.5q0 86 70 141.5t172 55.5q110 0 210 -72l-80 -110q-28 22 -65 36.5t-65 14.5t-49 -13.5t-21 -28.5
q0 -7 11 -12t48 -14q36 -8 54.5 -13.5t46.5 -17.5t42 -25.5t25 -37.5t11 -55q0 -88 -71 -140.5t-179 -52.5z" />
    <glyph glyph-name="t" unicode="t" horiz-adv-x="420" 
d="M391 365h-102q-37 -175 -37 -190q0 -27 25 -27q34 0 57 21l15 -133q-60 -48 -139 -48q-66 0 -107.5 40.5t-41.5 103.5q0 24 44 233h-65l32 152h65l30 142h184l-30 -142h102z" />
    <glyph glyph-name="u" unicode="u" horiz-adv-x="627" 
d="M437 517h193l-108 -517h-193l9 41q-58 -53 -143 -53q-75 0 -119.5 44.5t-44.5 115.5q0 7 0.5 12.5t1.5 14.5t2.5 17.5t4.5 25t6.5 32t9.5 45t12 57t16 74t19 91.5h184q-64 -303 -64 -317q0 -52 52 -52q37 0 67 26t36 61z" />
    <glyph glyph-name="v" unicode="v" horiz-adv-x="635" 
d="M177 0l-119 517h194l54 -296l177 296h202l-330 -517h-178z" />
    <glyph glyph-name="w" unicode="w" horiz-adv-x="847" 
d="M131 0l-70 517h181l22 -258l132 258h158l21 -258l131 258h189l-284 -517h-171l-13 266l-125 -266h-171z" />
    <glyph glyph-name="x" unicode="x" horiz-adv-x="576" 
d="M621 517l-229 -253l127 -264h-199l-58 120l-109 -120h-204l242 267l-121 250h200l51 -107l97 107h203z" />
    <glyph glyph-name="y" unicode="y" horiz-adv-x="607" 
d="M116 -180q-38 0 -82 13.5t-74 32.5l54 116q39 -25 66 -25q15 0 35.5 8t24.5 15l17 13l-98 524h193l38 -319l168 319h198l-305 -528q-48 -83 -109 -126t-126 -43z" />
    <glyph glyph-name="z" unicode="z" horiz-adv-x="546" 
d="M-18 0l25 133l276 224h-220l33 160h472l-27 -133l-275 -224h230l-34 -160h-480z" />
    <glyph glyph-name="braceleft" unicode="{" horiz-adv-x="428" 
d="M296 -166q-224 14 -224 151q0 27 16 94.5t16 86.5q0 25 -17 35t-58 10l10 110q100 0 119 89l20 106q19 91 83 132t201 50l5 -115q-77 -9 -107.5 -29.5t-41.5 -68.5l-22 -115q-9 -44 -32.5 -69t-69.5 -40q58 -19 58 -86q0 -23 -16 -91.5t-16 -84.5q0 -26 20.5 -35.5
t82.5 -17.5z" />
    <glyph glyph-name="bar" unicode="|" horiz-adv-x="313" 
d="M23 -74l170 817h129l-170 -817h-129z" />
    <glyph glyph-name="braceright" unicode="}" horiz-adv-x="428" 
d="M-32 -166l-5 114q76 9 107.5 30t41.5 69l23 114q9 44 32 69.5t70 40.5q-58 19 -58 86q0 20 16 90.5t16 85.5q0 25 -20.5 34.5t-82.5 17.5l26 112q115 -7 170 -44.5t55 -106.5q0 -24 -16.5 -96t-16.5 -85q0 -25 17 -34.5t59 -9.5l-10 -110q-100 0 -119 -89l-20 -107
q-19 -90 -83 -131t-202 -50z" />
    <glyph glyph-name="asciitilde" unicode="~" horiz-adv-x="459" 
d="M318 290q-36 0 -78 20.5t-47 20.5q-38 0 -58 -49l-86 27q22 71 54.5 102.5t82.5 31.5q35 0 77 -20.5t47 -20.5q39 0 58 49l87 -28q-22 -71 -54.5 -102t-82.5 -31z" />
    <glyph glyph-name="exclamdown" unicode="&#xa1;" horiz-adv-x="328" 
d="M206 529q47 0 76 -30t29 -75q0 -53 -39 -89.5t-90 -36.5q-44 0 -72.5 30t-28.5 73q0 52 38 90t87 38zM230 243l-43 -413h-215l128 413h130z" />
    <glyph glyph-name="cent" unicode="&#xa2;" horiz-adv-x="556" 
d="M392 195l113 -114q-87 -81 -198 -91l-13 -64h-110l15 72q-78 21 -126 82.5t-48 141.5q0 109 84.5 195.5t199.5 106.5l13 65h110l-13 -65q95 -18 149 -97l-140 -92q-22 34 -74 34q-55 0 -101.5 -46t-46.5 -98q0 -33 22 -55t56 -22q28 0 58.5 14t49.5 33z" />
    <glyph glyph-name="sterling" unicode="&#xa3;" horiz-adv-x="678" 
d="M335 250l-22 -107h318l-30 -143h-613l14 76l114 67l23 107h-74l19 87h73l28 134q22 103 100.5 165.5t183.5 62.5q73 0 137 -34.5t92 -85.5l-143 -109q-9 25 -29 39t-42 14q-40 0 -72 -26t-40 -62l-20 -98h137l-19 -87h-135z" />
    <glyph glyph-name="yen" unicode="&#xa5;" horiz-adv-x="709" 
d="M804 687l-288 -370h99l-18 -87h-149l-3 -4l-11 -49h152l-18 -87h-153l-20 -90h-194l20 90h-149l18 87h150l11 49l-1 4h-149l18 87h99l-135 370h180l106 -293l217 293h218z" />
    <glyph glyph-name="dieresis" unicode="&#xa8;" horiz-adv-x="524" 
d="M229 575q-37 0 -59 23t-22 58q0 39 27.5 65.5t64.5 26.5q34 0 56.5 -24t22.5 -58q0 -38 -27.5 -64.5t-62.5 -26.5zM454 575q-36 0 -58.5 23.5t-22.5 58.5q0 39 28 65t64 26q35 0 57 -23.5t22 -57.5q0 -39 -27 -65.5t-63 -26.5z" />
    <glyph glyph-name="macron" unicode="&#xaf;" horiz-adv-x="495" 
d="M128 573l22 106h369l-22 -106h-369z" />
    <glyph glyph-name="acute" unicode="&#xb4;" horiz-adv-x="409" 
d="M129 574l146 164l165 -28l-180 -136h-131z" />
    <glyph glyph-name="cedilla" unicode="&#xb8;" horiz-adv-x="337" 
d="M140 -44q26 -5 41 -22.5t15 -42.5q0 -44 -33.5 -67.5t-86.5 -23.5q-57 0 -101 34l35 59q19 -18 47 -18q25 0 41 9t16 23q0 15 -14 15q-18 0 -36 -13l-26 29l44 73h93z" />
    <glyph glyph-name="questiondown" unicode="&#xbf;" horiz-adv-x="507" 
d="M287 529q47 0 76 -30t29 -75q0 -53 -39 -89.5t-90 -36.5q-44 0 -72.5 30t-28.5 73q0 52 38 90t87 38zM348 253l-30 -150q-54 0 -103 -22.5t-49 -51.5q0 -38 58 -38t112 44l92 -119q-115 -98 -253 -98q-94 0 -150.5 48t-56.5 126q0 82 56.5 145t140.5 82l7 34h176z" />
    <glyph glyph-name="Agrave" unicode="&#xc0;" horiz-adv-x="775" 
d="M541 744h-121l-124 136l167 28zM505 0l-16 92h-239l-54 -92h-223l407 687h222l-2 -4l120 -683h-215zM335 235h128l-29 167z" />
    <glyph glyph-name="Aacute" unicode="&#xc1;" horiz-adv-x="775" 
d="M741 880l-180 -136h-131l146 164zM602 687l-2 -4l120 -683h-215l-16 92h-239l-54 -92h-223l407 687h222zM463 235l-29 167l-99 -167h128z" />
    <glyph glyph-name="Acircumflex" unicode="&#xc2;" horiz-adv-x="775" 
d="M527 811l-89 -67h-117l140 154h155l77 -154h-108zM505 0l-16 92h-239l-54 -92h-223l407 687h222l-2 -4l120 -683h-215zM335 235h128l-29 167z" />
    <glyph glyph-name="Atilde" unicode="&#xc3;" horiz-adv-x="775" 
d="M465 782q-38 0 -58 -49l-86 27q22 71 54.5 102.5t82.5 31.5q35 0 77 -20.5t47 -20.5q39 0 58 49l87 -28q-22 -71 -54.5 -102t-82.5 -31q-36 0 -78 20.5t-47 20.5zM602 687l-2 -4l120 -683h-215l-16 92h-239l-54 -92h-223l407 687h222zM463 235l-29 167l-99 -167h128z" />
    <glyph glyph-name="Adieresis" unicode="&#xc4;" horiz-adv-x="775" 
d="M410 745q-37 0 -59 23t-22 58q0 39 27.5 65.5t64.5 26.5q34 0 56.5 -24t22.5 -58q0 -38 -27.5 -64.5t-62.5 -26.5zM635 745q-36 0 -58.5 23.5t-22.5 58.5q0 39 28 65t64 26q35 0 57 -23.5t22 -57.5q0 -39 -27 -65.5t-63 -26.5zM602 687l-2 -4l120 -683h-215l-16 92h-239
l-54 -92h-223l407 687h222zM463 235l-29 167l-99 -167h128z" />
    <glyph glyph-name="Aring" unicode="&#xc5;" horiz-adv-x="775" 
d="M509 745q-43 0 -71 27.5t-28 68.5q0 58 46 102t103 44q43 0 71 -27.5t28 -68.5q0 -58 -46 -102t-103 -44zM544 915q-23 0 -41.5 -17.5t-18.5 -40.5q0 -17 11 -28.5t29 -11.5q23 0 41.5 18t18.5 41q0 17 -11.5 28t-28.5 11zM505 0l-16 92h-239l-54 -92h-223l407 687h222
l-2 -4l120 -683h-215zM335 235h128l-29 167z" />
    <glyph glyph-name="AE" unicode="&#xc6;" horiz-adv-x="1113" 
d="M1128 514h-359l-15 -77h326l-36 -173h-327l-18 -91h358l-36 -173h-553l19 92h-240l-72 -92h-228l540 687h677zM360 235h157l57 272z" />
    <glyph glyph-name="Ccedilla" unicode="&#xc7;" horiz-adv-x="711" 
d="M660 104q-49 -44 -119 -75t-139 -39l-22 -34q26 -5 41 -22.5t15 -42.5q0 -44 -33.5 -67.5t-86.5 -23.5q-57 0 -101 34l35 59q19 -18 47 -18q25 0 41 9t16 23q0 15 -14 15q-18 0 -36 -13l-26 29l33 54q-112 18 -187 104t-75 202q0 103 60.5 196t160.5 149t209 56
q85 0 157 -35t115 -91l-160 -114q-38 64 -121 64q-86 0 -155 -68.5t-69 -152.5q0 -62 39 -100t92 -38q39 0 84 21.5t76 54.5z" />
    <glyph glyph-name="Egrave" unicode="&#xc8;" horiz-adv-x="651" 
d="M544 744h-121l-124 136l167 28zM666 514h-359l-15 -77h326l-36 -173h-327l-18 -91h358l-36 -173h-553l143 687h553z" />
    <glyph glyph-name="Eacute" unicode="&#xc9;" horiz-adv-x="651" 
d="M627 880l-180 -136h-131l146 164zM666 514h-359l-15 -77h326l-36 -173h-327l-18 -91h358l-36 -173h-553l143 687h553z" />
    <glyph glyph-name="Ecircumflex" unicode="&#xca;" horiz-adv-x="651" 
d="M456 811l-89 -67h-117l140 154h155l77 -154h-108zM666 514h-359l-15 -77h326l-36 -173h-327l-18 -91h358l-36 -173h-553l143 687h553z" />
    <glyph glyph-name="Edieresis" unicode="&#xcb;" horiz-adv-x="651" 
d="M339 745q-37 0 -59 23t-22 58q0 39 27.5 65.5t64.5 26.5q34 0 56.5 -24t22.5 -58q0 -38 -27.5 -64.5t-62.5 -26.5zM564 745q-36 0 -58.5 23.5t-22.5 58.5q0 39 28 65t64 26q35 0 57 -23.5t22 -57.5q0 -39 -27 -65.5t-63 -26.5zM666 514h-359l-15 -77h326l-36 -173h-327
l-18 -91h358l-36 -173h-553l143 687h553z" />
    <glyph glyph-name="Igrave" unicode="&#xcc;" horiz-adv-x="321" 
d="M204 744l-124 136l167 28l78 -164h-121zM10 0l143 687h194l-143 -687h-194z" />
    <glyph glyph-name="Iacute" unicode="&#xcd;" horiz-adv-x="321" 
d="M187 744l146 164l165 -28l-180 -136h-131zM10 0l143 687h194l-143 -687h-194z" />
    <glyph glyph-name="Icircumflex" unicode="&#xce;" horiz-adv-x="321" 
d="M74 744l140 154h155l77 -154h-108l-58 67l-89 -67h-117zM10 0l143 687h194l-143 -687h-194z" />
    <glyph glyph-name="Idieresis" unicode="&#xcf;" horiz-adv-x="321" 
d="M163 745q-37 0 -59 23t-22 58q0 39 27.5 65.5t64.5 26.5q34 0 56.5 -24t22.5 -58q0 -38 -27.5 -64.5t-62.5 -26.5zM388 745q-36 0 -58.5 23.5t-22.5 58.5q0 39 28 65t64 26q35 0 57 -23.5t22 -57.5q0 -39 -27 -65.5t-63 -26.5zM10 0l143 687h194l-143 -687h-194z" />
    <glyph glyph-name="Eth" unicode="&#xd0;" horiz-adv-x="818" 
d="M457 687q154 0 252 -80.5t98 -206.5q0 -107 -65 -199t-176 -146.5t-239 -54.5h-263l54 258h-78l36 173h78l53 256h250zM383 176q92 0 159 64t67 153q0 52 -40.5 85t-103.5 33h-100l-17 -80h127l-37 -173h-126l-17 -82h88z" />
    <glyph glyph-name="Ntilde" unicode="&#xd1;" horiz-adv-x="776" 
d="M569 741q-36 0 -78 20.5t-47 20.5q-38 0 -58 -49l-86 27q22 71 54.5 102.5t82.5 31.5q35 0 77 -20.5t47 -20.5q39 0 58 49l87 -28q-22 -71 -54.5 -102t-82.5 -31zM6 0l143 687h192l191 -368l79 368h194l-143 -687h-191l-192 368l-79 -368h-194z" />
    <glyph glyph-name="Ograve" unicode="&#xd2;" horiz-adv-x="814" 
d="M441 744l-124 136l167 28l78 -164h-121zM363 -12q-137 0 -226.5 87t-89.5 214q0 107 64.5 203t166 151.5t208.5 55.5q137 0 227 -86.5t90 -213.5q0 -107 -64.5 -203t-166 -152t-209.5 -56zM375 164q87 0 159 73t72 155q0 56 -37 93.5t-94 37.5q-87 0 -159 -73t-72 -155
q0 -57 37 -94t94 -37z" />
    <glyph glyph-name="Oacute" unicode="&#xd3;" horiz-adv-x="814" 
d="M426 744l146 164l165 -28l-180 -136h-131zM363 -12q-137 0 -226.5 87t-89.5 214q0 107 64.5 203t166 151.5t208.5 55.5q137 0 227 -86.5t90 -213.5q0 -107 -64.5 -203t-166 -152t-209.5 -56zM375 164q87 0 159 73t72 155q0 56 -37 93.5t-94 37.5q-87 0 -159 -73t-72 -155
q0 -57 37 -94t94 -37z" />
    <glyph glyph-name="Ocircumflex" unicode="&#xd4;" horiz-adv-x="814" 
d="M308 744l140 154h155l77 -154h-108l-58 67l-89 -67h-117zM363 -12q-137 0 -226.5 87t-89.5 214q0 107 64.5 203t166 151.5t208.5 55.5q137 0 227 -86.5t90 -213.5q0 -107 -64.5 -203t-166 -152t-209.5 -56zM375 164q87 0 159 73t72 155q0 56 -37 93.5t-94 37.5
q-87 0 -159 -73t-72 -155q0 -57 37 -94t94 -37z" />
    <glyph glyph-name="Otilde" unicode="&#xd5;" horiz-adv-x="814" 
d="M577 741q-36 0 -78 20.5t-47 20.5q-38 0 -58 -49l-86 27q22 71 54.5 102.5t82.5 31.5q35 0 77 -20.5t47 -20.5q39 0 58 49l87 -28q-22 -71 -54.5 -102t-82.5 -31zM363 -12q-137 0 -226.5 87t-89.5 214q0 107 64.5 203t166 151.5t208.5 55.5q137 0 227 -86.5t90 -213.5
q0 -107 -64.5 -203t-166 -152t-209.5 -56zM375 164q87 0 159 73t72 155q0 56 -37 93.5t-94 37.5q-87 0 -159 -73t-72 -155q0 -57 37 -94t94 -37z" />
    <glyph glyph-name="Odieresis" unicode="&#xd6;" horiz-adv-x="814" 
d="M397 745q-37 0 -59 23t-22 58q0 39 27.5 65.5t64.5 26.5q34 0 56.5 -24t22.5 -58q0 -38 -27.5 -64.5t-62.5 -26.5zM622 745q-36 0 -58.5 23.5t-22.5 58.5q0 39 28 65t64 26q35 0 57 -23.5t22 -57.5q0 -39 -27 -65.5t-63 -26.5zM363 -12q-137 0 -226.5 87t-89.5 214
q0 107 64.5 203t166 151.5t208.5 55.5q137 0 227 -86.5t90 -213.5q0 -107 -64.5 -203t-166 -152t-209.5 -56zM375 164q87 0 159 73t72 155q0 56 -37 93.5t-94 37.5q-87 0 -159 -73t-72 -155q0 -57 37 -94t94 -37z" />
    <glyph glyph-name="multiply" unicode="&#xd7;" horiz-adv-x="574" 
d="M558 457l-145 -121l98 -122l-132 -113l-99 123l-144 -120l-89 106l146 122l-98 122l132 113l99 -123l143 119z" />
    <glyph glyph-name="Oslash" unicode="&#xd8;" horiz-adv-x="814" 
d="M867 687l-119 -115q55 -75 55 -173q0 -107 -64.5 -203t-166 -152t-209.5 -56q-97 0 -173 46l-36 -34h-165l116 111q-58 78 -58 178q0 107 64.5 203t166 151.5t208.5 55.5q98 0 178 -48l38 36h165zM244 295q0 -23 6 -43l273 263q-24 8 -48 8q-87 0 -159 -73t-72 -155z
M606 392q0 17 -5 39l-270 -260q20 -7 44 -7q87 0 159 73t72 155z" />
    <glyph glyph-name="Ugrave" unicode="&#xd9;" horiz-adv-x="761" 
d="M466 744l-124 136l167 28l78 -164h-121zM336 -12q-148 0 -224.5 92.5t-47.5 232.5l78 374h194l-79 -380q-13 -66 12 -104.5t79 -38.5q62 0 113.5 46t65.5 113l75 364h194l-81 -390q-28 -139 -133.5 -224t-245.5 -85z" />
    <glyph glyph-name="Uacute" unicode="&#xda;" horiz-adv-x="761" 
d="M359 744l146 164l165 -28l-180 -136h-131zM336 -12q-148 0 -224.5 92.5t-47.5 232.5l78 374h194l-79 -380q-13 -66 12 -104.5t79 -38.5q62 0 113.5 46t65.5 113l75 364h194l-81 -390q-28 -139 -133.5 -224t-245.5 -85z" />
    <glyph glyph-name="Ucircumflex" unicode="&#xdb;" horiz-adv-x="761" 
d="M293 744l140 154h155l77 -154h-108l-58 67l-89 -67h-117zM336 -12q-148 0 -224.5 92.5t-47.5 232.5l78 374h194l-79 -380q-13 -66 12 -104.5t79 -38.5q62 0 113.5 46t65.5 113l75 364h194l-81 -390q-28 -139 -133.5 -224t-245.5 -85z" />
    <glyph glyph-name="Udieresis" unicode="&#xdc;" horiz-adv-x="761" 
d="M382 745q-37 0 -59 23t-22 58q0 39 27.5 65.5t64.5 26.5q34 0 56.5 -24t22.5 -58q0 -38 -27.5 -64.5t-62.5 -26.5zM607 745q-36 0 -58.5 23.5t-22.5 58.5q0 39 28 65t64 26q35 0 57 -23.5t22 -57.5q0 -39 -27 -65.5t-63 -26.5zM336 -12q-148 0 -224.5 92.5t-47.5 232.5
l78 374h194l-79 -380q-13 -66 12 -104.5t79 -38.5q62 0 113.5 46t65.5 113l75 364h194l-81 -390q-28 -139 -133.5 -224t-245.5 -85z" />
    <glyph glyph-name="Yacute" unicode="&#xdd;" horiz-adv-x="709" 
d="M315 744l146 164l165 -28l-180 -136h-131zM201 0l50 226l-168 461h180l106 -293l217 293h218l-359 -461l-50 -226h-194z" />
    <glyph glyph-name="Thorn" unicode="&#xde;" horiz-adv-x="671" 
d="M6 0l143 687h189l-21 -102h134q100 0 161 -55t61 -145q0 -121 -89.5 -200.5t-219.5 -79.5h-142l-22 -105h-194zM259 281h113q38 0 70 28t32 60q0 40 -63 40h-125z" />
    <glyph glyph-name="germandbls" unicode="&#xdf;" horiz-adv-x="638" 
d="M-3 0l109 522q19 92 101 147t195 55q107 0 171.5 -50.5t64.5 -131.5q0 -62 -34 -111.5t-96 -76.5q43 -20 68 -58.5t25 -86.5q0 -96 -80 -152.5t-193 -56.5h-69l34 163h24q32 0 59.5 20.5t33.5 49.5q4 19 -11.5 29.5t-46.5 10.5h-36l31 147h-5q33 0 61.5 24t28.5 49
q0 31 -50 31q-35 0 -63 -20t-34 -49l-95 -455h-193z" />
    <glyph glyph-name="agrave" unicode="&#xe0;" 
d="M501 574h-121l-124 136l167 28zM486 517h193l-108 -517h-193l11 52q-74 -64 -167 -64q-91 0 -144.5 58.5t-53.5 153.5q0 131 82.5 230t203.5 99q109 0 161 -84zM208 221q0 -34 22 -53.5t62 -19.5q58 0 101.5 47t43.5 103q0 33 -20 52t-54 19q-62 0 -108.5 -45t-46.5 -103
z" />
    <glyph glyph-name="aacute" unicode="&#xe1;" 
d="M584 710l-180 -136h-131l146 164zM486 517h193l-108 -517h-193l11 52q-74 -64 -167 -64q-91 0 -144.5 58.5t-53.5 153.5q0 131 82.5 230t203.5 99q109 0 161 -84zM208 221q0 -34 22 -53.5t62 -19.5q58 0 101.5 47t43.5 103q0 33 -20 52t-54 19q-62 0 -108.5 -45
t-46.5 -103z" />
    <glyph glyph-name="acircumflex" unicode="&#xe2;" 
d="M413 641l-89 -67h-117l140 154h155l77 -154h-108zM486 517h193l-108 -517h-193l11 52q-74 -64 -167 -64q-91 0 -144.5 58.5t-53.5 153.5q0 131 82.5 230t203.5 99q109 0 161 -84zM208 221q0 -34 22 -53.5t62 -19.5q58 0 101.5 47t43.5 103q0 33 -20 52t-54 19
q-62 0 -108.5 -45t-46.5 -103z" />
    <glyph glyph-name="atilde" unicode="&#xe3;" 
d="M351 612q-38 0 -58 -49l-86 27q22 71 54.5 102.5t82.5 31.5q35 0 77 -20.5t47 -20.5q39 0 58 49l87 -28q-22 -71 -54.5 -102t-82.5 -31q-36 0 -78 20.5t-47 20.5zM486 517h193l-108 -517h-193l11 52q-74 -64 -167 -64q-91 0 -144.5 58.5t-53.5 153.5q0 131 82.5 230
t203.5 99q109 0 161 -84zM208 221q0 -34 22 -53.5t62 -19.5q58 0 101.5 47t43.5 103q0 33 -20 52t-54 19q-62 0 -108.5 -45t-46.5 -103z" />
    <glyph glyph-name="adieresis" unicode="&#xe4;" 
d="M296 575q-37 0 -59 23t-22 58q0 39 27.5 65.5t64.5 26.5q34 0 56.5 -24t22.5 -58q0 -38 -27.5 -64.5t-62.5 -26.5zM521 575q-36 0 -58.5 23.5t-22.5 58.5q0 39 28 65t64 26q35 0 57 -23.5t22 -57.5q0 -39 -27 -65.5t-63 -26.5zM486 517h193l-108 -517h-193l11 52
q-74 -64 -167 -64q-91 0 -144.5 58.5t-53.5 153.5q0 131 82.5 230t203.5 99q109 0 161 -84zM208 221q0 -34 22 -53.5t62 -19.5q58 0 101.5 47t43.5 103q0 33 -20 52t-54 19q-62 0 -108.5 -45t-46.5 -103z" />
    <glyph glyph-name="aring" unicode="&#xe5;" 
d="M395 575q-43 0 -71 27.5t-28 68.5q0 58 46 102t103 44q43 0 71 -27.5t28 -68.5q0 -58 -46 -102t-103 -44zM430 745q-23 0 -41.5 -17.5t-18.5 -40.5q0 -17 11 -28.5t29 -11.5q23 0 41.5 18t18.5 41q0 17 -11.5 28t-28.5 11zM486 517h193l-108 -517h-193l11 52
q-74 -64 -167 -64q-91 0 -144.5 58.5t-53.5 153.5q0 131 82.5 230t203.5 99q109 0 161 -84zM208 221q0 -34 22 -53.5t62 -19.5q58 0 101.5 47t43.5 103q0 33 -20 52t-54 19q-62 0 -108.5 -45t-46.5 -103z" />
    <glyph glyph-name="ae" unicode="&#xe6;" horiz-adv-x="880" 
d="M874 388q0 -87 -67.5 -133t-188.5 -42h-104q0 -38 20 -59.5t55 -21.5q63 0 131 48l93 -117q-41 -34 -103 -54.5t-118 -20.5q-117 0 -183 69q-72 -69 -201 -69q-105 0 -162.5 51t-41.5 129q15 70 84 113.5t160 43.5q59 0 115 -28l3 16q7 33 -13 48t-67 15q-66 0 -134 -33
l-48 128q127 58 221 58q104 0 154 -63q83 63 193 63q89 0 145.5 -39.5t56.5 -101.5zM667 385q-72 0 -120 -71h92q78 0 80 45q0 11 -14.5 18.5t-37.5 7.5zM226 112q45 0 75.5 17t35.5 42l5 24q-24 13 -67 13q-32 0 -57.5 -19t-31.5 -46q-3 -14 8 -22.5t32 -8.5z" />
    <glyph glyph-name="ccedilla" unicode="&#xe7;" horiz-adv-x="556" 
d="M505 81q-86 -82 -201 -92l-21 -33q26 -5 41 -22.5t15 -42.5q0 -44 -33.5 -67.5t-86.5 -23.5q-57 0 -101 34l35 59q19 -18 47 -18q25 0 41 9t16 23q0 15 -14 15q-18 0 -36 -13l-26 29l34 56q-85 18 -137.5 80.5t-52.5 147.5q0 82 50 153.5t128 112.5t161 41
q134 0 204 -102l-140 -92q-22 34 -74 34q-55 0 -101.5 -46t-46.5 -98q0 -33 22 -55t56 -22q28 0 58.5 14t49.5 33z" />
    <glyph glyph-name="egrave" unicode="&#xe8;" horiz-adv-x="560" 
d="M463 574h-121l-124 136l167 28zM545 388q0 -87 -67.5 -133t-188.5 -42h-104q0 -38 20 -59.5t55 -21.5q63 0 131 48l93 -117q-41 -34 -103 -54.5t-118 -20.5q-110 0 -175 61t-65 161q0 133 92.5 226t227.5 93q89 0 145.5 -39.5t56.5 -101.5zM338 385q-72 0 -120 -71h92
q78 0 80 45q0 11 -15 18.5t-37 7.5z" />
    <glyph glyph-name="eacute" unicode="&#xe9;" horiz-adv-x="560" 
d="M546 710l-180 -136h-131l146 164zM343 529q89 0 145.5 -39.5t56.5 -101.5q0 -87 -67.5 -133t-188.5 -42h-104q0 -38 20 -59.5t55 -21.5q63 0 131 48l93 -117q-41 -34 -103 -54.5t-118 -20.5q-110 0 -175 61t-65 161q0 133 92.5 226t227.5 93zM310 314q78 0 80 45
q0 11 -15 18.5t-37 7.5q-72 0 -120 -71h92z" />
    <glyph glyph-name="ecircumflex" unicode="&#xea;" horiz-adv-x="560" 
d="M375 641l-89 -67h-117l140 154h155l77 -154h-108zM545 388q0 -87 -67.5 -133t-188.5 -42h-104q0 -38 20 -59.5t55 -21.5q63 0 131 48l93 -117q-41 -34 -103 -54.5t-118 -20.5q-110 0 -175 61t-65 161q0 133 92.5 226t227.5 93q89 0 145.5 -39.5t56.5 -101.5zM338 385
q-72 0 -120 -71h92q78 0 80 45q0 11 -15 18.5t-37 7.5z" />
    <glyph glyph-name="edieresis" unicode="&#xeb;" horiz-adv-x="560" 
d="M258 575q-37 0 -59 23t-22 58q0 39 27.5 65.5t64.5 26.5q34 0 56.5 -24t22.5 -58q0 -38 -27.5 -64.5t-62.5 -26.5zM494 748q35 0 57 -23.5t22 -57.5q0 -39 -27 -65.5t-63 -26.5t-58.5 23.5t-22.5 58.5q0 39 28 65t64 26zM343 529q89 0 145.5 -39.5t56.5 -101.5
q0 -87 -67.5 -133t-188.5 -42h-104q0 -38 20 -59.5t55 -21.5q63 0 131 48l93 -117q-41 -34 -103 -54.5t-118 -20.5q-110 0 -175 61t-65 161q0 133 92.5 226t227.5 93zM310 314q78 0 80 45q0 11 -15 18.5t-37 7.5q-72 0 -120 -71h92z" />
    <glyph glyph-name="igrave" unicode="&#xec;" horiz-adv-x="304" 
d="M158 574l-124 136l167 28l78 -164h-121zM1 0l108 517h193l-108 -517h-193z" />
    <glyph glyph-name="iacute" unicode="&#xed;" horiz-adv-x="304" 
d="M149 574l146 164l165 -28l-180 -136h-131zM1 0l108 517h193l-108 -517h-193z" />
    <glyph glyph-name="icircumflex" unicode="&#xee;" horiz-adv-x="304" 
d="M30 574l140 154h155l77 -154h-108l-58 67l-89 -67h-117zM1 0l108 517h193l-108 -517h-193z" />
    <glyph glyph-name="idieresis" unicode="&#xef;" horiz-adv-x="304" 
d="M119 575q-37 0 -59 23t-22 58q0 39 27.5 65.5t64.5 26.5q34 0 56.5 -24t22.5 -58q0 -38 -27.5 -64.5t-62.5 -26.5zM344 575q-36 0 -58.5 23.5t-22.5 58.5q0 39 28 65t64 26q35 0 57 -23.5t22 -57.5q0 -39 -27 -65.5t-63 -26.5zM1 0l108 517h193l-108 -517h-193z" />
    <glyph glyph-name="eth" unicode="&#xf0;" horiz-adv-x="635" 
d="M504 616q112 -130 112 -258q0 -153 -98 -261.5t-243 -108.5q-111 0 -178 60t-67 157q0 115 75.5 201t185.5 86q81 0 140 -65q-14 65 -75 128l-106 -44l-23 88l53 22l-58 43l172 63q30 -28 43 -41l97 40l23 -88zM285 149q55 0 96 39t41 89q0 28 -19.5 44.5t-54.5 16.5
q-54 0 -95.5 -39t-41.5 -88q0 -29 19.5 -45.5t54.5 -16.5z" />
    <glyph glyph-name="ntilde" unicode="&#xf1;" horiz-adv-x="627" 
d="M348 612q-38 0 -58 -49l-86 27q22 71 54.5 102.5t82.5 31.5q35 0 77 -20.5t47 -20.5q39 0 58 49l87 -28q-22 -71 -54.5 -102t-82.5 -31q-36 0 -78 20.5t-47 20.5zM432 529q75 0 119.5 -44.5t44.5 -115.5q0 -7 -0.5 -12.5t-1.5 -14.5t-2.5 -17.5t-4.5 -25t-6.5 -32
t-9.5 -45t-12 -57t-16 -74t-19 -91.5h-184q64 303 64 317q0 52 -52 52q-37 0 -67 -26t-36 -61l-59 -282h-193l108 517h193l-9 -41q58 53 143 53z" />
    <glyph glyph-name="ograve" unicode="&#xf2;" horiz-adv-x="636" 
d="M361 574l-124 136l167 28l78 -164h-121zM275 -12q-108 0 -179 67.5t-71 166.5q0 124 105 215.5t233 91.5q108 0 178.5 -67t70.5 -166q0 -82 -49.5 -154t-127 -113t-160.5 -41zM284 148q56 0 103.5 46.5t47.5 98.5q0 33 -22.5 54.5t-57.5 21.5q-57 0 -105 -46t-48 -98
q0 -33 23 -55t59 -22z" />
    <glyph glyph-name="oacute" unicode="&#xf3;" horiz-adv-x="636" 
d="M254 574l146 164l165 -28l-180 -136h-131zM275 -12q-108 0 -179 67.5t-71 166.5q0 124 105 215.5t233 91.5q108 0 178.5 -67t70.5 -166q0 -82 -49.5 -154t-127 -113t-160.5 -41zM284 148q56 0 103.5 46.5t47.5 98.5q0 33 -22.5 54.5t-57.5 21.5q-57 0 -105 -46t-48 -98
q0 -33 23 -55t59 -22z" />
    <glyph glyph-name="ocircumflex" unicode="&#xf4;" horiz-adv-x="636" 
d="M188 574l140 154h155l77 -154h-108l-58 67l-89 -67h-117zM275 -12q-108 0 -179 67.5t-71 166.5q0 124 105 215.5t233 91.5q108 0 178.5 -67t70.5 -166q0 -82 -49.5 -154t-127 -113t-160.5 -41zM284 148q56 0 103.5 46.5t47.5 98.5q0 33 -22.5 54.5t-57.5 21.5
q-57 0 -105 -46t-48 -98q0 -33 23 -55t59 -22z" />
    <glyph glyph-name="otilde" unicode="&#xf5;" horiz-adv-x="636" 
d="M457 571q-36 0 -78 20.5t-47 20.5q-38 0 -58 -49l-86 27q22 71 54.5 102.5t82.5 31.5q35 0 77 -20.5t47 -20.5q39 0 58 49l87 -28q-22 -71 -54.5 -102t-82.5 -31zM275 -12q-108 0 -179 67.5t-71 166.5q0 124 105 215.5t233 91.5q108 0 178.5 -67t70.5 -166
q0 -82 -49.5 -154t-127 -113t-160.5 -41zM284 148q56 0 103.5 46.5t47.5 98.5q0 33 -22.5 54.5t-57.5 21.5q-57 0 -105 -46t-48 -98q0 -33 23 -55t59 -22z" />
    <glyph glyph-name="odieresis" unicode="&#xf6;" horiz-adv-x="636" 
d="M277 575q-37 0 -59 23t-22 58q0 39 27.5 65.5t64.5 26.5q34 0 56.5 -24t22.5 -58q0 -38 -27.5 -64.5t-62.5 -26.5zM502 575q-36 0 -58.5 23.5t-22.5 58.5q0 39 28 65t64 26q35 0 57 -23.5t22 -57.5q0 -39 -27 -65.5t-63 -26.5zM275 -12q-108 0 -179 67.5t-71 166.5
q0 124 105 215.5t233 91.5q108 0 178.5 -67t70.5 -166q0 -82 -49.5 -154t-127 -113t-160.5 -41zM284 148q56 0 103.5 46.5t47.5 98.5q0 33 -22.5 54.5t-57.5 21.5q-57 0 -105 -46t-48 -98q0 -33 23 -55t59 -22z" />
    <glyph glyph-name="divide" unicode="&#xf7;" horiz-adv-x="609" 
d="M357 442q-40 0 -65.5 26.5t-25.5 65.5q0 45 32.5 74.5t74.5 29.5q38 0 62.5 -26t24.5 -64q0 -43 -31 -74.5t-72 -31.5zM55 260l31 149h499l-31 -149h-499zM271 30q-40 0 -65 26t-25 65q0 46 31.5 75.5t74.5 29.5q38 0 63 -26t25 -63q0 -43 -31.5 -75t-72.5 -32z" />
    <glyph glyph-name="oslash" unicode="&#xf8;" horiz-adv-x="636" 
d="M659 517l-91 -85q44 -60 44 -136q0 -82 -49.5 -154t-127 -113t-160.5 -41q-81 0 -143 40l-30 -28h-125l92 85q-44 61 -44 137q0 124 105 215.5t233 91.5q81 0 142 -39l30 27h124zM202 225q0 -10 1 -15l170 157q-10 2 -18 2q-57 0 -105 -46t-48 -98zM435 293q0 10 -1 15
l-170 -158q12 -2 20 -2q56 0 103.5 46.5t47.5 98.5z" />
    <glyph glyph-name="ugrave" unicode="&#xf9;" horiz-adv-x="627" 
d="M481 574h-121l-124 136l167 28zM437 517h193l-108 -517h-193l9 41q-58 -53 -143 -53q-75 0 -119.5 44.5t-44.5 115.5q0 7 0.5 12.5t1.5 14.5t2.5 17.5t4.5 25t6.5 32t9.5 45t12 57t16 74t19 91.5h184q-64 -303 -64 -317q0 -52 52 -52q37 0 67 26t36 61z" />
    <glyph glyph-name="uacute" unicode="&#xfa;" horiz-adv-x="627" 
d="M564 710l-180 -136h-131l146 164zM437 517h193l-108 -517h-193l9 41q-58 -53 -143 -53q-75 0 -119.5 44.5t-44.5 115.5q0 7 0.5 12.5t1.5 14.5t2.5 17.5t4.5 25t6.5 32t9.5 45t12 57t16 74t19 91.5h184q-64 -303 -64 -317q0 -52 52 -52q37 0 67 26t36 61z" />
    <glyph glyph-name="ucircumflex" unicode="&#xfb;" horiz-adv-x="627" 
d="M393 641l-89 -67h-117l140 154h155l77 -154h-108zM437 517h193l-108 -517h-193l9 41q-58 -53 -143 -53q-75 0 -119.5 44.5t-44.5 115.5q0 7 0.5 12.5t1.5 14.5t2.5 17.5t4.5 25t6.5 32t9.5 45t12 57t16 74t19 91.5h184q-64 -303 -64 -317q0 -52 52 -52q37 0 67 26t36 61z
" />
    <glyph glyph-name="udieresis" unicode="&#xfc;" horiz-adv-x="627" 
d="M276 575q-37 0 -59 23t-22 58q0 39 27.5 65.5t64.5 26.5q34 0 56.5 -24t22.5 -58q0 -38 -27.5 -64.5t-62.5 -26.5zM501 575q-36 0 -58.5 23.5t-22.5 58.5q0 39 28 65t64 26q35 0 57 -23.5t22 -57.5q0 -39 -27 -65.5t-63 -26.5zM437 517h193l-108 -517h-193l9 41
q-58 -53 -143 -53q-75 0 -119.5 44.5t-44.5 115.5q0 7 0.5 12.5t1.5 14.5t2.5 17.5t4.5 25t6.5 32t9.5 45t12 57t16 74t19 91.5h184q-64 -303 -64 -317q0 -52 52 -52q37 0 67 26t36 61z" />
    <glyph glyph-name="yacute" unicode="&#xfd;" horiz-adv-x="607" 
d="M248 574l146 164l165 -28l-180 -136h-131zM116 -180q-38 0 -82 13.5t-74 32.5l54 116q39 -25 66 -25q15 0 35.5 8t24.5 15l17 13l-98 524h193l38 -319l168 319h198l-305 -528q-48 -83 -109 -126t-126 -43z" />
    <glyph glyph-name="thorn" unicode="&#xfe;" 
d="M454 529q91 0 144.5 -58t53.5 -153q0 -132 -82.5 -231t-203.5 -99q-108 0 -161 83l-50 -243h-193l181 871h193l-49 -235q75 65 167 65zM314 148q61 0 107.5 45.5t46.5 102.5q0 34 -22 53.5t-61 19.5q-59 0 -102.5 -47t-43.5 -103q0 -33 20 -52t55 -19z" />
    <glyph glyph-name="ydieresis" unicode="&#xff;" horiz-adv-x="607" 
d="M271 575q-37 0 -59 23t-22 58q0 39 27.5 65.5t64.5 26.5q34 0 56.5 -24t22.5 -58q0 -38 -27.5 -64.5t-62.5 -26.5zM496 575q-36 0 -58.5 23.5t-22.5 58.5q0 39 28 65t64 26q35 0 57 -23.5t22 -57.5q0 -39 -27 -65.5t-63 -26.5zM116 -180q-38 0 -82 13.5t-74 32.5l54 116
q39 -25 66 -25q15 0 35.5 8t24.5 15l17 13l-98 524h193l38 -319l168 319h198l-305 -528q-48 -83 -109 -126t-126 -43z" />
    <glyph glyph-name="Amacron" unicode="&#x100;" horiz-adv-x="775" 
d="M715 849l-22 -106h-369l22 106h369zM505 0l-16 92h-239l-54 -92h-223l407 687h222l-2 -4l120 -683h-215zM335 235h128l-29 167z" />
    <glyph glyph-name="amacron" unicode="&#x101;" 
d="M601 679l-22 -106h-369l22 106h369zM486 517h193l-108 -517h-193l11 52q-74 -64 -167 -64q-91 0 -144.5 58.5t-53.5 153.5q0 131 82.5 230t203.5 99q109 0 161 -84zM208 221q0 -34 22 -53.5t62 -19.5q58 0 101.5 47t43.5 103q0 33 -20 52t-54 19q-62 0 -108.5 -45
t-46.5 -103z" />
    <glyph glyph-name="Abreve" unicode="&#x102;" horiz-adv-x="775" 
d="M510 745q-99 0 -156 71l89 74q35 -43 88 -43q55 0 106 43l59 -74q-86 -71 -186 -71zM505 0l-16 92h-239l-54 -92h-223l407 687h222l-2 -4l120 -683h-215zM335 235h128l-29 167z" />
    <glyph glyph-name="abreve" unicode="&#x103;" 
d="M396 575q-99 0 -156 71l89 74q35 -43 88 -43q55 0 106 43l59 -74q-86 -71 -186 -71zM486 517h193l-108 -517h-193l11 52q-74 -64 -167 -64q-91 0 -144.5 58.5t-53.5 153.5q0 131 82.5 230t203.5 99q109 0 161 -84zM208 221q0 -34 22 -53.5t62 -19.5q58 0 101.5 47
t43.5 103q0 33 -20 52t-54 19q-62 0 -108.5 -45t-46.5 -103z" />
    <glyph glyph-name="Aogonek" unicode="&#x104;" horiz-adv-x="775" 
d="M735 -50l13 -93q-39 -30 -91 -30q-47 0 -74 26.5t-27 73.5q0 42 22 73h-73l-16 92h-239l-54 -92h-223l407 687h222l-2 -4l119 -680l8 -3q-22 0 -39 -13.5t-17 -31.5q0 -21 20 -21q28 0 44 16zM335 235h128l-29 167z" />
    <glyph glyph-name="aogonek" unicode="&#x105;" 
d="M542 -66q28 0 44 16l13 -93q-39 -30 -91 -30q-47 0 -74 26.5t-27 73.5q0 42 22 73h-51l11 52q-74 -64 -167 -64q-91 0 -144.5 58.5t-53.5 153.5q0 131 82.5 230t203.5 99q109 0 161 -84l15 72h193l-107 -514l6 -3q-22 0 -39 -13.5t-17 -31.5q0 -21 20 -21zM208 221
q0 -34 22 -53.5t62 -19.5q58 0 101.5 47t43.5 103q0 33 -20 52t-54 19q-62 0 -108.5 -45t-46.5 -103z" />
    <glyph glyph-name="Cacute" unicode="&#x106;" horiz-adv-x="711" 
d="M343 744l146 164l165 -28l-180 -136h-131zM362 -12q-129 0 -221 90t-92 220q0 103 60.5 196t160.5 149t209 56q85 0 157 -35t115 -91l-160 -114q-38 64 -121 64q-86 0 -155 -68.5t-69 -152.5q0 -62 39 -100t92 -38q39 0 84 21.5t76 54.5l123 -136q-57 -51 -140 -83.5
t-158 -32.5z" />
    <glyph glyph-name="cacute" unicode="&#x107;" horiz-adv-x="556" 
d="M239 574l146 164l165 -28l-180 -136h-131zM273 -12q-107 0 -177.5 67.5t-70.5 166.5q0 82 50 153.5t128 112.5t161 41q134 0 204 -102l-140 -92q-22 34 -74 34q-55 0 -101.5 -46t-46.5 -98q0 -33 22 -55t56 -22q28 0 58.5 14t49.5 33l113 -114q-99 -93 -232 -93z" />
    <glyph glyph-name="Ccaron" unicode="&#x10c;" horiz-adv-x="711" 
d="M390 744l-76 154h108l57 -67l90 67h117l-141 -154h-155zM362 -12q-129 0 -221 90t-92 220q0 103 60.5 196t160.5 149t209 56q85 0 157 -35t115 -91l-160 -114q-38 64 -121 64q-86 0 -155 -68.5t-69 -152.5q0 -62 39 -100t92 -38q39 0 84 21.5t76 54.5l123 -136
q-57 -51 -140 -83.5t-158 -32.5z" />
    <glyph glyph-name="ccaron" unicode="&#x10d;" horiz-adv-x="556" 
d="M286 574l-76 154h108l57 -67l90 67h117l-141 -154h-155zM273 -12q-107 0 -177.5 67.5t-70.5 166.5q0 82 50 153.5t128 112.5t161 41q134 0 204 -102l-140 -92q-22 34 -74 34q-55 0 -101.5 -46t-46.5 -98q0 -33 22 -55t56 -22q28 0 58.5 14t49.5 33l113 -114
q-99 -93 -232 -93z" />
    <glyph glyph-name="Dcaron" unicode="&#x10e;" horiz-adv-x="760" 
d="M336 744l-76 154h108l57 -67l90 67h117l-141 -154h-155zM6 0l143 687h250q154 0 252 -80.5t98 -206.5q0 -107 -65 -199t-176 -146.5t-239 -54.5h-263zM237 176h88q92 0 159 64t67 153q0 52 -40.5 85t-103.5 33h-100z" />
    <glyph glyph-name="dcaron" unicode="&#x10f;" horiz-adv-x="675" 
d="M471 446l52 253h193l-145 -699h-193l11 52q-74 -64 -167 -64q-91 0 -144.5 58.5t-53.5 153.5q0 131 82.5 230t203.5 99q108 0 161 -83zM847 699q35 0 56 -26t21 -68q0 -101 -123 -189l-48 46q42 28 73 72q-67 0 -67 73q0 37 26.5 64.5t61.5 27.5zM208 221q0 -34 22 -53.5
t62 -19.5q58 0 101.5 47t43.5 103q0 33 -20 52t-54 19q-62 0 -108.5 -45t-46.5 -103z" />
    <glyph glyph-name="Dcroat" unicode="&#x110;" horiz-adv-x="818" 
d="M457 687q154 0 252 -80.5t98 -206.5q0 -107 -65 -199t-176 -146.5t-239 -54.5h-263l54 258h-78l36 173h78l53 256h250zM383 176q92 0 159 64t67 153q0 52 -40.5 85t-103.5 33h-100l-17 -80h127l-37 -173h-126l-17 -82h88z" />
    <glyph glyph-name="dcroat" unicode="&#x111;" horiz-adv-x="706" 
d="M763 655l-19 -90h-56l-117 -565h-193l11 52q-74 -64 -167 -64q-91 0 -144.5 58.5t-53.5 153.5q0 131 82.5 230t203.5 99q108 0 161 -83l24 119h-141l19 90h141l9 44h193l-9 -44h56zM208 221q0 -34 22 -53.5t62 -19.5q58 0 101.5 47t43.5 103q0 33 -20 52t-54 19
q-62 0 -108.5 -45t-46.5 -103z" />
    <glyph glyph-name="Emacron" unicode="&#x112;" horiz-adv-x="651" 
d="M644 849l-22 -106h-369l22 106h369zM666 514h-359l-15 -77h326l-36 -173h-327l-18 -91h358l-36 -173h-553l143 687h553z" />
    <glyph glyph-name="emacron" unicode="&#x113;" horiz-adv-x="560" 
d="M563 679l-22 -106h-369l22 106h369zM343 529q89 0 145.5 -39.5t56.5 -101.5q0 -87 -67.5 -133t-188.5 -42h-104q0 -38 20 -59.5t55 -21.5q63 0 131 48l93 -117q-41 -34 -103 -54.5t-118 -20.5q-110 0 -175 61t-65 161q0 133 92.5 226t227.5 93zM310 314q78 0 80 45
q0 11 -15 18.5t-37 7.5q-72 0 -120 -71h92z" />
    <glyph glyph-name="Edotaccent" unicode="&#x116;" horiz-adv-x="651" 
d="M451 745q-37 0 -59 23t-22 58q0 39 27.5 65.5t64.5 26.5q34 0 56.5 -24t22.5 -58q0 -38 -27.5 -64.5t-62.5 -26.5zM666 514h-359l-15 -77h326l-36 -173h-327l-18 -91h358l-36 -173h-553l143 687h553z" />
    <glyph glyph-name="edotaccent" unicode="&#x117;" horiz-adv-x="560" 
d="M370 575q-37 0 -59 23t-22 58q0 39 27.5 65.5t64.5 26.5q34 0 56.5 -24t22.5 -58q0 -38 -27.5 -64.5t-62.5 -26.5zM545 388q0 -87 -67.5 -133t-188.5 -42h-104q0 -38 20 -59.5t55 -21.5q63 0 131 48l93 -117q-41 -34 -103 -54.5t-118 -20.5q-110 0 -175 61t-65 161
q0 133 92.5 226t227.5 93q89 0 145.5 -39.5t56.5 -101.5zM338 385q-72 0 -120 -71h92q78 0 80 45q0 11 -15 18.5t-37 7.5z" />
    <glyph glyph-name="Eogonek" unicode="&#x118;" horiz-adv-x="651" 
d="M666 514h-359l-15 -77h326l-36 -173h-327l-18 -91h358l-36 -173h-218q-22 0 -39 -13.5t-17 -31.5q0 -21 20 -21q28 0 44 16l13 -93q-39 -30 -91 -30q-47 0 -74 26.5t-27 73.5q0 42 22 73h-186l143 687h553z" />
    <glyph glyph-name="eogonek" unicode="&#x119;" horiz-adv-x="560" 
d="M545 388q0 -87 -67.5 -133t-188.5 -42h-104q0 -38 20 -59.5t55 -21.5q63 0 131 48l93 -117q-39 -33 -98.5 -53t-115.5 -22q-22 0 -39 -13.5t-17 -31.5q0 -21 20 -21q28 0 44 16l13 -93q-39 -30 -91 -30q-47 0 -74 26.5t-27 73.5q0 58 43 98q-57 26 -88 77.5t-31 119.5
q0 133 92.5 226t227.5 93q89 0 145.5 -39.5t56.5 -101.5zM338 385q-72 0 -120 -71h92q78 0 80 45q0 11 -15 18.5t-37 7.5z" />
    <glyph glyph-name="Ecaron" unicode="&#x11a;" horiz-adv-x="651" 
d="M518 744h-155l-76 154h108l57 -67l90 67h117zM666 514h-359l-15 -77h326l-36 -173h-327l-18 -91h358l-36 -173h-553l143 687h553z" />
    <glyph glyph-name="ecaron" unicode="&#x11b;" horiz-adv-x="560" 
d="M437 574h-155l-76 154h108l57 -67l90 67h117zM343 529q89 0 145.5 -39.5t56.5 -101.5q0 -87 -67.5 -133t-188.5 -42h-104q0 -38 20 -59.5t55 -21.5q63 0 131 48l93 -117q-41 -34 -103 -54.5t-118 -20.5q-110 0 -175 61t-65 161q0 133 92.5 226t227.5 93zM310 314
q78 0 80 45q0 11 -15 18.5t-37 7.5q-72 0 -120 -71h92z" />
    <glyph glyph-name="Gbreve" unicode="&#x11e;" horiz-adv-x="745" 
d="M507 745q-99 0 -156 71l89 74q35 -43 88 -43q55 0 106 43l59 -74q-86 -71 -186 -71zM378 253l30 143h322l-61 -292q-64 -57 -143 -86.5t-157 -29.5q-139 0 -230 87t-91 215q0 107 65 202.5t167.5 151t211.5 55.5q84 0 154 -34t114 -92l-160 -114q-36 64 -119 64
q-88 0 -162 -72t-74 -155q0 -57 38 -94.5t98 -37.5t119 38l10 51h-132z" />
    <glyph glyph-name="gbreve" unicode="&#x11f;" horiz-adv-x="657" 
d="M405 575q-99 0 -156 71l89 74q35 -43 88 -43q55 0 106 43l59 -74q-86 -71 -186 -71zM466 517h194l-98 -470q-21 -100 -111.5 -159.5t-215.5 -59.5q-146 0 -235 73l81 124q37 -37 129 -37q62 0 109 25t55 60l5 23q-71 -58 -161 -58q-84 0 -136 55.5t-52 144.5
q0 113 77.5 202t185.5 89q53 0 97 -23t62 -57zM293 198q42 0 78 26t47 63l3 15q1 3 1 10q0 27 -17.5 42t-48.5 15q-50 0 -89.5 -34t-39.5 -79q0 -29 18 -43.5t48 -14.5z" />
    <glyph glyph-name="Gcommaaccent" unicode="&#x122;" horiz-adv-x="745" 
d="M378 253l30 143h322l-61 -292q-64 -57 -143 -86.5t-157 -29.5q-139 0 -230 87t-91 215q0 107 65 202.5t167.5 151t211.5 55.5q84 0 154 -34t114 -92l-160 -114q-36 64 -119 64q-88 0 -162 -72t-74 -155q0 -57 38 -94.5t98 -37.5t119 38l10 51h-132zM347 -23q35 0 56 -26
t21 -68q0 -101 -123 -189l-48 46q42 28 73 72q-67 0 -67 73q0 37 26.5 64.5t61.5 27.5z" />
    <glyph glyph-name="gcommaaccent" unicode="&#x123;" horiz-adv-x="600" 
d="M422 574q-35 0 -56 26t-21 68q0 101 123 189l48 -46q-42 -28 -73 -72q67 0 67 -73q0 -37 -26.5 -64.5t-61.5 -27.5zM466 517h194l-98 -470q-21 -100 -111.5 -159.5t-215.5 -59.5q-146 0 -235 73l81 124q37 -37 129 -37q62 0 109 25t55 60l5 23q-71 -58 -161 -58
q-84 0 -136 55.5t-52 144.5q0 113 77.5 202t185.5 89q53 0 97 -23t62 -57zM293 198q42 0 78 26t47 63l3 15q1 3 1 10q0 27 -17.5 42t-48.5 15q-50 0 -89.5 -34t-39.5 -79q0 -29 18 -43.5t48 -14.5z" />
    <glyph glyph-name="Imacron" unicode="&#x12a;" horiz-adv-x="321" 
d="M77 743l22 106h369l-22 -106h-369zM10 0l143 687h194l-143 -687h-194z" />
    <glyph glyph-name="imacron" unicode="&#x12b;" horiz-adv-x="304" 
d="M33 573l22 106h369l-22 -106h-369zM1 0l108 517h193l-108 -517h-193z" />
    <glyph glyph-name="Iogonek" unicode="&#x12e;" horiz-adv-x="321" 
d="M175 -66q28 0 44 16l13 -93q-39 -30 -91 -30q-47 0 -74 26.5t-27 73.5q0 42 22 73h-52l143 687h194l-142 -684l6 -3q-22 0 -39 -13.5t-17 -31.5q0 -21 20 -21z" />
    <glyph glyph-name="iogonek" unicode="&#x12f;" horiz-adv-x="304" 
d="M231 575q-37 0 -59 23t-22 58q0 39 27.5 65.5t64.5 26.5q34 0 56.5 -24t22.5 -58q0 -38 -27.5 -64.5t-62.5 -26.5zM9 39l100 478h193l-108 -517h-89q-22 0 -39 -13.5t-17 -31.5q0 -21 20 -21q28 0 44 16l13 -93q-39 -30 -91 -30q-47 0 -74 26.5t-27 73.5q0 74 67 115z
" />
    <glyph glyph-name="Idotaccent" unicode="&#x130;" horiz-adv-x="321" 
d="M275 745q-37 0 -59 23t-22 58q0 39 27.5 65.5t64.5 26.5q34 0 56.5 -24t22.5 -58q0 -38 -27.5 -64.5t-62.5 -26.5zM10 0l143 687h194l-143 -687h-194z" />
    <glyph glyph-name="dotlessi" unicode="&#x131;" horiz-adv-x="304" 
d="M1 0l108 517h193l-108 -517h-193z" />
    <glyph glyph-name="Kcommaaccent" unicode="&#x136;" horiz-adv-x="717" 
d="M6 0l143 687h194l-52 -243l268 243h247l-321 -292l187 -395h-221l-121 260l-89 -78l-41 -182h-194zM261 -306l-48 46q42 28 73 72q-67 0 -67 73q0 37 26.5 64.5t61.5 27.5t56 -26t21 -68q0 -101 -123 -189z" />
    <glyph glyph-name="kcommaaccent" unicode="&#x137;" horiz-adv-x="588" 
d="M649 517l-229 -223l121 -294h-211l-57 171l-58 -54l-24 -117h-193l145 699h193l-75 -360l168 178h220zM239 -23q35 0 56 -26t21 -68q0 -101 -123 -189l-48 46q42 28 73 72q-67 0 -67 73q0 37 26.5 64.5t61.5 27.5z" />
    <glyph glyph-name="Lacute" unicode="&#x139;" horiz-adv-x="597" 
d="M504 880l-180 -136h-131l146 164zM238 173h318l-36 -173h-514l143 687h194z" />
    <glyph glyph-name="lacute" unicode="&#x13a;" horiz-adv-x="303" 
d="M186 756l146 164l165 -28l-180 -136h-131zM2 0l145 699h193l-145 -699h-193z" />
    <glyph glyph-name="Lcaron" unicode="&#x13d;" horiz-adv-x="597" 
d="M382 461q42 28 73 72q-67 0 -67 73q0 37 26.5 64.5t61.5 27.5t56 -26t21 -68q0 -101 -123 -189zM238 173h318l-36 -173h-514l143 687h194z" />
    <glyph glyph-name="lcaron" unicode="&#x13e;" horiz-adv-x="303" 
d="M2 0l145 699h193l-145 -699h-193zM424 416l-48 46q42 28 73 72q-67 0 -67 73q0 37 26.5 64.5t61.5 27.5t56 -26t21 -68q0 -101 -123 -189z" />
    <glyph glyph-name="Lslash" unicode="&#x141;" horiz-adv-x="623" 
d="M264 173h318l-36 -173h-514l44 210l-72 -32l32 167l75 33l64 309h194l-43 -213l114 51l-33 -167l-115 -52z" />
    <glyph glyph-name="lslash" unicode="&#x142;" horiz-adv-x="386" 
d="M420 517l-33 -167l-80 -36l-65 -314h-193l45 219l-90 -41l32 167l93 42l65 312h193l-45 -217z" />
    <glyph glyph-name="Nacute" unicode="&#x143;" horiz-adv-x="776" 
d="M366 744l146 164l165 -28l-180 -136h-131zM6 0l143 687h192l191 -368l79 368h194l-143 -687h-191l-192 368l-79 -368h-194z" />
    <glyph glyph-name="nacute" unicode="&#x144;" horiz-adv-x="627" 
d="M581 710l-180 -136h-131l146 164zM432 529q75 0 119.5 -44.5t44.5 -115.5q0 -7 -0.5 -12.5t-1.5 -14.5t-2.5 -17.5t-4.5 -25t-6.5 -32t-9.5 -45t-12 -57t-16 -74t-19 -91.5h-184q64 303 64 317q0 52 -52 52q-37 0 -67 -26t-36 -61l-59 -282h-193l108 517h193l-9 -41
q58 53 143 53z" />
    <glyph glyph-name="Ncommaaccent" unicode="&#x145;" horiz-adv-x="776" 
d="M6 0l143 687h192l191 -368l79 368h194l-143 -687h-191l-192 368l-79 -368h-194zM272 -306l-48 46q42 28 73 72q-67 0 -67 73q0 37 26.5 64.5t61.5 27.5t56 -26t21 -68q0 -101 -123 -189z" />
    <glyph glyph-name="ncommaaccent" unicode="&#x146;" horiz-adv-x="627" 
d="M432 529q75 0 119.5 -44.5t44.5 -115.5q0 -7 -0.5 -12.5t-1.5 -14.5t-2.5 -17.5t-4.5 -25t-6.5 -32t-9.5 -45t-12 -57t-16 -74t-19 -91.5h-184q64 303 64 317q0 52 -52 52q-37 0 -67 -26t-36 -61l-59 -282h-193l108 517h193l-9 -41q58 53 143 53zM255 -23q35 0 56 -26
t21 -68q0 -101 -123 -189l-48 46q42 28 73 72q-67 0 -67 73q0 37 26.5 64.5t61.5 27.5z" />
    <glyph glyph-name="Ncaron" unicode="&#x147;" horiz-adv-x="776" 
d="M413 744l-76 154h108l57 -67l90 67h117l-141 -154h-155zM6 0l143 687h192l191 -368l79 368h194l-143 -687h-191l-192 368l-79 -368h-194z" />
    <glyph glyph-name="ncaron" unicode="&#x148;" horiz-adv-x="627" 
d="M472 574h-155l-76 154h108l57 -67l90 67h117zM432 529q75 0 119.5 -44.5t44.5 -115.5q0 -7 -0.5 -12.5t-1.5 -14.5t-2.5 -17.5t-4.5 -25t-6.5 -32t-9.5 -45t-12 -57t-16 -74t-19 -91.5h-184q64 303 64 317q0 52 -52 52q-37 0 -67 -26t-36 -61l-59 -282h-193l108 517h193
l-9 -41q58 53 143 53z" />
    <glyph glyph-name="Omacron" unicode="&#x14c;" horiz-adv-x="814" 
d="M311 743l22 106h369l-22 -106h-369zM363 -12q-137 0 -226.5 87t-89.5 214q0 107 64.5 203t166 151.5t208.5 55.5q137 0 227 -86.5t90 -213.5q0 -107 -64.5 -203t-166 -152t-209.5 -56zM375 164q87 0 159 73t72 155q0 56 -37 93.5t-94 37.5q-87 0 -159 -73t-72 -155
q0 -57 37 -94t94 -37z" />
    <glyph glyph-name="omacron" unicode="&#x14d;" horiz-adv-x="636" 
d="M191 573l22 106h369l-22 -106h-369zM275 -12q-108 0 -179 67.5t-71 166.5q0 124 105 215.5t233 91.5q108 0 178.5 -67t70.5 -166q0 -82 -49.5 -154t-127 -113t-160.5 -41zM284 148q56 0 103.5 46.5t47.5 98.5q0 33 -22.5 54.5t-57.5 21.5q-57 0 -105 -46t-48 -98
q0 -33 23 -55t59 -22z" />
    <glyph glyph-name="Ohungarumlaut" unicode="&#x150;" horiz-adv-x="814" 
d="M343 744l146 164l165 -28l-180 -136h-131zM601 744l146 164l165 -28l-180 -136h-131zM363 -12q-137 0 -226.5 87t-89.5 214q0 107 64.5 203t166 151.5t208.5 55.5q137 0 227 -86.5t90 -213.5q0 -107 -64.5 -203t-166 -152t-209.5 -56zM375 164q87 0 159 73t72 155
q0 56 -37 93.5t-94 37.5q-87 0 -159 -73t-72 -155q0 -57 37 -94t94 -37z" />
    <glyph glyph-name="ohungarumlaut" unicode="&#x151;" horiz-adv-x="636" 
d="M185 574l146 164l165 -28l-180 -136h-131zM443 574l146 164l165 -28l-180 -136h-131zM275 -12q-108 0 -179 67.5t-71 166.5q0 124 105 215.5t233 91.5q108 0 178.5 -67t70.5 -166q0 -82 -49.5 -154t-127 -113t-160.5 -41zM284 148q56 0 103.5 46.5t47.5 98.5
q0 33 -22.5 54.5t-57.5 21.5q-57 0 -105 -46t-48 -98q0 -33 23 -55t59 -22z" />
    <glyph glyph-name="OE" unicode="&#x152;" horiz-adv-x="1040" 
d="M1055 514h-359l-15 -77h326l-36 -173h-327l-18 -91h358l-36 -173h-587q-134 0 -223.5 83t-89.5 208q0 106 63.5 198.5t165.5 145t214 52.5h600zM385 176h47l69 335h-34q-83 0 -152 -66.5t-69 -147.5q0 -54 38.5 -87.5t100.5 -33.5z" />
    <glyph glyph-name="oe" unicode="&#x153;" horiz-adv-x="964" 
d="M702 213h-104q0 -38 20 -59.5t55 -21.5q63 0 131 48l93 -117q-41 -34 -103 -54.5t-118 -20.5q-122 0 -189 75q-97 -75 -212 -75q-108 0 -179 67.5t-71 166.5q0 124 105 215.5t233 91.5q113 0 186 -75q88 75 207 75q89 0 145.5 -39.5t56.5 -101.5q0 -87 -67.5 -133
t-188.5 -42zM751 385q-72 0 -120 -71h92q78 0 80 45q0 11 -14.5 18.5t-37.5 7.5zM284 148q56 0 103.5 46.5t47.5 98.5q0 33 -22.5 54.5t-57.5 21.5q-57 0 -105 -46t-48 -98q0 -33 23 -55t59 -22z" />
    <glyph glyph-name="Racute" unicode="&#x154;" horiz-adv-x="721" 
d="M649 880l-180 -136h-131l146 164zM694 487q0 -88 -50 -157t-133 -100l139 -230h-216l-125 207h-65l-44 -207h-194l143 687h323q100 0 161 -55t61 -145zM307 511l-27 -128h113q38 0 70.5 28t32.5 60q0 40 -64 40h-125z" />
    <glyph glyph-name="racute" unicode="&#x155;" horiz-adv-x="463" 
d="M483 710l-180 -136h-131l146 164zM281 435q72 94 175 94l-21 -160q-74 0 -128.5 -42t-71.5 -111l-45 -216h-193l108 517h193z" />
    <glyph glyph-name="Rcommaaccent" unicode="&#x156;" horiz-adv-x="721" 
d="M694 487q0 -88 -50 -157t-133 -100l139 -230h-216l-125 207h-65l-44 -207h-194l143 687h323q100 0 161 -55t61 -145zM307 511l-27 -128h113q38 0 70.5 28t32.5 60q0 40 -64 40h-125zM290 -23q35 0 56 -26t21 -68q0 -101 -123 -189l-48 46q42 28 73 72q-67 0 -67 73
q0 37 26.5 64.5t61.5 27.5z" />
    <glyph glyph-name="rcommaaccent" unicode="&#x157;" horiz-adv-x="463" 
d="M281 435q72 94 175 94l-21 -160q-74 0 -128.5 -42t-71.5 -111l-45 -216h-193l108 517h193zM173 -23q35 0 56 -26t21 -68q0 -101 -123 -189l-48 46q42 28 73 72q-67 0 -67 73q0 37 26.5 64.5t61.5 27.5z" />
    <glyph glyph-name="Rcaron" unicode="&#x158;" horiz-adv-x="721" 
d="M540 744h-155l-76 154h108l57 -67l90 67h117zM694 487q0 -88 -50 -157t-133 -100l139 -230h-216l-125 207h-65l-44 -207h-194l143 687h323q100 0 161 -55t61 -145zM307 511l-27 -128h113q38 0 70.5 28t32.5 60q0 40 -64 40h-125z" />
    <glyph glyph-name="rcaron" unicode="&#x159;" horiz-adv-x="463" 
d="M374 574h-155l-76 154h108l57 -67l90 67h117zM281 435q72 94 175 94l-21 -160q-74 0 -128.5 -42t-71.5 -111l-45 -216h-193l108 517h193z" />
    <glyph glyph-name="Sacute" unicode="&#x15a;" horiz-adv-x="647" 
d="M286 744l146 164l165 -28l-180 -136h-131zM285 -12q-92 0 -173 32t-135 89l126 119q83 -79 196 -79q54 0 84.5 21t30.5 46q0 14 -13 20t-61 18q-15 4 -24 6q-50 13 -76 20.5t-62 23t-53 33t-30 46t-13 65.5q0 108 88 179.5t228 71.5q165 0 269 -98l-116 -128
q-76 65 -171 65q-46 0 -73 -21t-27 -46q0 -17 18 -25t81 -22q127 -29 179.5 -67.5t52.5 -116.5q0 -113 -93.5 -182.5t-232.5 -69.5z" />
    <glyph glyph-name="sacute" unicode="&#x15b;" horiz-adv-x="504" 
d="M194 574l146 164l165 -28l-180 -136h-131zM210 -12q-70 0 -132.5 22.5t-105.5 60.5l87 108q31 -25 76.5 -41t82.5 -16q32 0 51 11.5t19 28.5q0 13 -60 27q-38 9 -56.5 14t-46.5 16.5t-41 24.5t-23.5 35.5t-10.5 52.5q0 86 70 141.5t172 55.5q110 0 210 -72l-80 -110
q-28 22 -65 36.5t-65 14.5t-49 -13.5t-21 -28.5q0 -7 11 -12t48 -14q36 -8 54.5 -13.5t46.5 -17.5t42 -25.5t25 -37.5t11 -55q0 -88 -71 -140.5t-179 -52.5z" />
    <glyph glyph-name="Scedilla" unicode="&#x15e;" horiz-adv-x="647" 
d="M379 424q127 -29 179.5 -67.5t52.5 -116.5q0 -106 -83 -174.5t-210 -76.5l-21 -33q26 -5 41 -22.5t15 -42.5q0 -44 -33.5 -67.5t-86.5 -23.5q-57 0 -101 34l35 59q19 -18 47 -18q25 0 41 9t16 23q0 15 -14 15q-18 0 -36 -13l-26 29l32 53q-155 18 -250 118l126 119
q83 -79 196 -79q54 0 84.5 21t30.5 46q0 14 -13 20t-61 18q-15 4 -24 6q-50 13 -76 20.5t-62 23t-53 33t-30 46t-13 65.5q0 108 88 179.5t228 71.5q165 0 269 -98l-116 -128q-76 65 -171 65q-46 0 -73 -21t-27 -46q0 -17 18 -25t81 -22z" />
    <glyph glyph-name="scedilla" unicode="&#x15f;" horiz-adv-x="504" 
d="M281 330q36 -8 54.5 -13.5t46.5 -17.5t42 -25.5t25 -37.5t11 -55q0 -81 -60 -132t-156 -59l-21 -34q26 -5 41 -22.5t15 -42.5q0 -44 -33.5 -67.5t-86.5 -23.5q-57 0 -101 34l35 59q19 -18 47 -18q25 0 41 9t16 23q0 15 -14 15q-18 0 -36 -13l-26 29l33 54
q-110 15 -182 79l87 108q31 -25 76.5 -41t82.5 -16q32 0 51 11.5t19 28.5q0 13 -60 27q-38 9 -56.5 14t-46.5 16.5t-41 24.5t-23.5 35.5t-10.5 52.5q0 86 70 141.5t172 55.5q110 0 210 -72l-80 -110q-28 22 -65 36.5t-65 14.5t-49 -13.5t-21 -28.5q0 -7 11 -12t48 -14z" />
    <glyph glyph-name="Scaron" unicode="&#x160;" horiz-adv-x="647" 
d="M333 744l-76 154h108l57 -67l90 67h117l-141 -154h-155zM285 -12q-92 0 -173 32t-135 89l126 119q83 -79 196 -79q54 0 84.5 21t30.5 46q0 14 -13 20t-61 18q-15 4 -24 6q-50 13 -76 20.5t-62 23t-53 33t-30 46t-13 65.5q0 108 88 179.5t228 71.5q165 0 269 -98
l-116 -128q-76 65 -171 65q-46 0 -73 -21t-27 -46q0 -17 18 -25t81 -22q127 -29 179.5 -67.5t52.5 -116.5q0 -113 -93.5 -182.5t-232.5 -69.5z" />
    <glyph glyph-name="scaron" unicode="&#x161;" horiz-adv-x="504" 
d="M241 574l-76 154h108l57 -67l90 67h117l-141 -154h-155zM210 -12q-70 0 -132.5 22.5t-105.5 60.5l87 108q31 -25 76.5 -41t82.5 -16q32 0 51 11.5t19 28.5q0 13 -60 27q-38 9 -56.5 14t-46.5 16.5t-41 24.5t-23.5 35.5t-10.5 52.5q0 86 70 141.5t172 55.5q110 0 210 -72
l-80 -110q-28 22 -65 36.5t-65 14.5t-49 -13.5t-21 -28.5q0 -7 11 -12t48 -14q36 -8 54.5 -13.5t46.5 -17.5t42 -25.5t25 -37.5t11 -55q0 -88 -71 -140.5t-179 -52.5z" />
    <glyph glyph-name="uni0162" unicode="&#x162;" horiz-adv-x="645" 
d="M112 687h600l-36 -173h-203l-107 -514h-48l-28 -44q26 -5 41 -22.5t15 -42.5q0 -44 -33.5 -67.5t-86.5 -23.5q-57 0 -101 34l35 59q19 -18 47 -18q25 0 41 9t16 23q0 15 -14 15q-18 0 -36 -13l-26 29l37 62h-53l107 514h-203z" />
    <glyph glyph-name="uni0163" unicode="&#x163;" horiz-adv-x="420" 
d="M391 365h-102q-37 -175 -37 -190q0 -27 25 -27q34 0 57 21l15 -133q-29 -22 -59 -33l-30 -47q26 -5 41 -22.5t15 -42.5q0 -44 -33.5 -67.5t-86.5 -23.5q-57 0 -101 34l35 59q19 -18 47 -18q25 0 41 9t16 23q0 15 -14 15q-18 0 -36 -13l-26 29l31 51q-58 7 -93 46t-35 97
q0 24 44 233h-65l32 152h65l30 142h184l-30 -142h102z" />
    <glyph glyph-name="Tcaron" unicode="&#x164;" horiz-adv-x="645" 
d="M349 744l-76 154h108l57 -67l90 67h117l-141 -154h-155zM172 0l107 514h-203l36 173h600l-36 -173h-203l-107 -514h-194z" />
    <glyph glyph-name="tcaron" unicode="&#x165;" horiz-adv-x="420" 
d="M594 699q35 0 56 -26t21 -68q0 -101 -123 -189l-48 46q42 28 73 72q-67 0 -67 73q0 37 26.5 64.5t61.5 27.5zM351 659l-30 -142h102l-32 -152h-102q-37 -175 -37 -190q0 -27 25 -27q34 0 57 21l15 -133q-60 -48 -139 -48q-66 0 -107.5 40.5t-41.5 103.5q0 24 44 233h-65
l32 152h65l30 142h184z" />
    <glyph glyph-name="Umacron" unicode="&#x16a;" horiz-adv-x="761" 
d="M296 743l22 106h369l-22 -106h-369zM336 -12q-148 0 -224.5 92.5t-47.5 232.5l78 374h194l-79 -380q-13 -66 12 -104.5t79 -38.5q62 0 113.5 46t65.5 113l75 364h194l-81 -390q-28 -139 -133.5 -224t-245.5 -85z" />
    <glyph glyph-name="umacron" unicode="&#x16b;" horiz-adv-x="627" 
d="M581 679l-22 -106h-369l22 106h369zM437 517h193l-108 -517h-193l9 41q-58 -53 -143 -53q-75 0 -119.5 44.5t-44.5 115.5q0 7 0.5 12.5t1.5 14.5t2.5 17.5t4.5 25t6.5 32t9.5 45t12 57t16 74t19 91.5h184q-64 -303 -64 -317q0 -52 52 -52q37 0 67 26t36 61z" />
    <glyph glyph-name="Uring" unicode="&#x16e;" horiz-adv-x="761" 
d="M481 745q-43 0 -71 27.5t-28 68.5q0 58 46 102t103 44q43 0 71 -27.5t28 -68.5q0 -58 -46 -102t-103 -44zM496 817q23 0 41.5 18t18.5 41q0 17 -11.5 28t-28.5 11q-23 0 -41.5 -17.5t-18.5 -40.5q0 -17 11 -28.5t29 -11.5zM336 -12q-148 0 -224.5 92.5t-47.5 232.5
l78 374h194l-79 -380q-13 -66 12 -104.5t79 -38.5q62 0 113.5 46t65.5 113l75 364h194l-81 -390q-28 -139 -133.5 -224t-245.5 -85z" />
    <glyph glyph-name="uring" unicode="&#x16f;" horiz-adv-x="627" 
d="M375 575q-43 0 -71 27.5t-28 68.5q0 58 46 102t103 44q43 0 71 -27.5t28 -68.5q0 -58 -46 -102t-103 -44zM410 745q-23 0 -41.5 -17.5t-18.5 -40.5q0 -17 11 -28.5t29 -11.5q23 0 41.5 18t18.5 41q0 17 -11.5 28t-28.5 11zM437 517h193l-108 -517h-193l9 41
q-58 -53 -143 -53q-75 0 -119.5 44.5t-44.5 115.5q0 7 0.5 12.5t1.5 14.5t2.5 17.5t4.5 25t6.5 32t9.5 45t12 57t16 74t19 91.5h184q-64 -303 -64 -317q0 -52 52 -52q37 0 67 26t36 61z" />
    <glyph glyph-name="Uhungarumlaut" unicode="&#x170;" horiz-adv-x="761" 
d="M210 744l146 164l165 -28l-180 -136h-131zM468 744l146 164l165 -28l-180 -136h-131zM336 -12q-148 0 -224.5 92.5t-47.5 232.5l78 374h194l-79 -380q-13 -66 12 -104.5t79 -38.5q62 0 113.5 46t65.5 113l75 364h194l-81 -390q-28 -139 -133.5 -224t-245.5 -85z" />
    <glyph glyph-name="uhungarumlaut" unicode="&#x171;" horiz-adv-x="627" 
d="M415 710l-180 -136h-131l146 164zM493 574h-131l146 164l165 -28zM378 235l59 282h193l-108 -517h-193l9 41q-58 -53 -143 -53q-75 0 -119.5 44.5t-44.5 115.5q0 7 0.5 12.5t1.5 14.5t2.5 17.5t4.5 25t6.5 32t9.5 45t12 57t16 74t19 91.5h184q-64 -303 -64 -317
q0 -52 52 -52q37 0 67 26t36 61z" />
    <glyph glyph-name="Uogonek" unicode="&#x172;" horiz-adv-x="761" 
d="M602 687h194l-81 -390q-28 -139 -133.5 -224t-245.5 -85q-14 0 -21 1q-19 -16 -19 -34q0 -21 20 -21q28 0 44 16l13 -93q-39 -30 -91 -30q-47 0 -74 26.5t-27 73.5q0 49 30 83q-89 35 -129 116t-18 187l78 374h194l-79 -380q-13 -66 12 -104.5t79 -38.5q62 0 113.5 46
t65.5 113z" />
    <glyph glyph-name="uogonek" unicode="&#x173;" horiz-adv-x="627" 
d="M486 -66q28 0 44 16l13 -93q-39 -30 -91 -30q-47 0 -74 26.5t-27 73.5q0 42 22 73h-44l9 41q-58 -53 -143 -53q-75 0 -119.5 44.5t-44.5 115.5q0 7 0.5 12.5t1.5 14.5t2.5 17.5t4.5 25t6.5 32t9.5 45t12 57t16 74t19 91.5h184q-64 -303 -64 -317q0 -52 52 -52q37 0 67 26
t36 61l59 282h193l-108 -517q-22 0 -39 -13.5t-17 -31.5q0 -21 20 -21z" />
    <glyph glyph-name="Wcircumflex" unicode="&#x174;" horiz-adv-x="1076" 
d="M449 744l140 154h155l77 -154h-108l-58 67l-89 -67h-117zM145 0l-48 687h206v-397l217 397h209l48 -397l168 397h212l-333 -687h-196l-58 397l-229 -397h-196z" />
    <glyph glyph-name="wcircumflex" unicode="&#x175;" horiz-adv-x="847" 
d="M299 574l140 154h155l77 -154h-108l-58 67l-89 -67h-117zM131 0l-70 517h181l22 -258l132 258h158l21 -258l131 258h189l-284 -517h-171l-13 266l-125 -266h-171z" />
    <glyph glyph-name="Ycircumflex" unicode="&#x176;" horiz-adv-x="709" 
d="M249 744l140 154h155l77 -154h-108l-58 67l-89 -67h-117zM201 0l50 226l-168 461h180l106 -293l217 293h218l-359 -461l-50 -226h-194z" />
    <glyph glyph-name="ycircumflex" unicode="&#x177;" horiz-adv-x="607" 
d="M182 574l140 154h155l77 -154h-108l-58 67l-89 -67h-117zM116 -180q-38 0 -82 13.5t-74 32.5l54 116q39 -25 66 -25q15 0 35.5 8t24.5 15l17 13l-98 524h193l38 -319l168 319h198l-305 -528q-48 -83 -109 -126t-126 -43z" />
    <glyph glyph-name="Ydieresis" unicode="&#x178;" horiz-adv-x="709" 
d="M338 745q-37 0 -59 23t-22 58q0 39 27.5 65.5t64.5 26.5q34 0 56.5 -24t22.5 -58q0 -38 -27.5 -64.5t-62.5 -26.5zM563 745q-36 0 -58.5 23.5t-22.5 58.5q0 39 28 65t64 26q35 0 57 -23.5t22 -57.5q0 -39 -27 -65.5t-63 -26.5zM201 0l50 226l-168 461h180l106 -293
l217 293h218l-359 -461l-50 -226h-194z" />
    <glyph glyph-name="Zacute" unicode="&#x179;" horiz-adv-x="667" 
d="M321 744l146 164l165 -28l-180 -136h-131zM-10 0l26 145l403 369h-316l36 173h584l-28 -145l-400 -369h326l-36 -173h-595z" />
    <glyph glyph-name="zacute" unicode="&#x17a;" horiz-adv-x="546" 
d="M225 574l146 164l165 -28l-180 -136h-131zM-18 0l25 133l276 224h-220l33 160h472l-27 -133l-275 -224h230l-34 -160h-480z" />
    <glyph glyph-name="Zdotaccent" unicode="&#x17b;" horiz-adv-x="667" 
d="M456 745q-37 0 -59 23t-22 58q0 39 27.5 65.5t64.5 26.5q34 0 56.5 -24t22.5 -58q0 -38 -27.5 -64.5t-62.5 -26.5zM-10 0l26 145l403 369h-316l36 173h584l-28 -145l-400 -369h326l-36 -173h-595z" />
    <glyph glyph-name="zdotaccent" unicode="&#x17c;" horiz-adv-x="546" 
d="M360 575q-37 0 -59 23t-22 58q0 39 27.5 65.5t64.5 26.5q34 0 56.5 -24t22.5 -58q0 -38 -27.5 -64.5t-62.5 -26.5zM-18 0l25 133l276 224h-220l33 160h472l-27 -133l-275 -224h230l-34 -160h-480z" />
    <glyph glyph-name="Zcaron" unicode="&#x17d;" horiz-adv-x="667" 
d="M368 744l-76 154h108l57 -67l90 67h117l-141 -154h-155zM-10 0l26 145l403 369h-316l36 173h584l-28 -145l-400 -369h326l-36 -173h-595z" />
    <glyph glyph-name="zcaron" unicode="&#x17e;" horiz-adv-x="546" 
d="M272 574l-76 154h108l57 -67l90 67h117l-141 -154h-155zM-18 0l25 133l276 224h-220l33 160h472l-27 -133l-275 -224h230l-34 -160h-480z" />
    <glyph glyph-name="uni0237" unicode="&#x237;" horiz-adv-x="304" 
d="M-14 -178q-70 0 -120 27l35 133q11 -5 39 -5q24 0 44 18.5t25 42.5l100 479h193l-108 -519q-16 -80 -73.5 -128t-134.5 -48z" />
    <glyph glyph-name="circumflex" unicode="&#x2c6;" horiz-adv-x="498" 
d="M129 574l140 154h155l77 -154h-108l-58 67l-89 -67h-117z" />
    <glyph glyph-name="caron" unicode="&#x2c7;" horiz-adv-x="498" 
d="M237 574l-76 154h108l57 -67l90 67h117l-141 -154h-155z" />
    <glyph glyph-name="breve" unicode="&#x2d8;" horiz-adv-x="468" 
d="M300 575q-99 0 -156 71l89 74q35 -43 88 -43q55 0 106 43l59 -74q-86 -71 -186 -71z" />
    <glyph glyph-name="dotaccent" unicode="&#x2d9;" horiz-adv-x="299" 
d="M229 575q-37 0 -59 23t-22 58q0 39 27.5 65.5t64.5 26.5q34 0 56.5 -24t22.5 -58q0 -38 -27.5 -64.5t-62.5 -26.5z" />
    <glyph glyph-name="ring" unicode="&#x2da;" horiz-adv-x="368" 
d="M250 575q-43 0 -71 27.5t-28 68.5q0 58 46 102t103 44q43 0 71 -27.5t28 -68.5q0 -58 -46 -102t-103 -44zM265 647q23 0 41.5 18t18.5 41q0 17 -11.5 28t-28.5 11q-23 0 -41.5 -17.5t-18.5 -40.5q0 -17 11 -28.5t29 -11.5z" />
    <glyph glyph-name="ogonek" unicode="&#x2db;" horiz-adv-x="336" 
d="M98 -173q-47 0 -74 26.5t-27 73.5q0 74 67 115l104 -42q-22 0 -39 -13.5t-17 -31.5q0 -21 20 -21q28 0 44 16l13 -93q-39 -30 -91 -30z" />
    <glyph glyph-name="tilde" unicode="&#x2dc;" horiz-adv-x="440" 
d="M367 571q-36 0 -78 20.5t-47 20.5q-38 0 -58 -49l-86 27q22 71 54.5 102.5t82.5 31.5q35 0 77 -20.5t47 -20.5q39 0 58 49l87 -28q-22 -71 -54.5 -102t-82.5 -31z" />
    <glyph glyph-name="hungarumlaut" unicode="&#x2dd;" horiz-adv-x="667" 
d="M129 574l146 164l165 -28l-180 -136h-131zM387 574l146 164l165 -28l-180 -136h-131z" />
    <glyph glyph-name="uni0326" unicode="&#x326;" horiz-adv-x="0" 
d="M-275 -306l-48 46q42 28 73 72q-67 0 -67 73q0 37 26.5 64.5t61.5 27.5t56 -26t21 -68q0 -101 -123 -189z" />
    <glyph glyph-name="Wgrave" unicode="&#x1e80;" horiz-adv-x="1076" 
d="M568 744l-124 136l167 28l78 -164h-121zM145 0l-48 687h206v-397l217 397h209l48 -397l168 397h212l-333 -687h-196l-58 397l-229 -397h-196z" />
    <glyph glyph-name="wgrave" unicode="&#x1e81;" horiz-adv-x="847" 
d="M421 574l-124 136l167 28l78 -164h-121zM131 0l-70 517h181l22 -258l132 258h158l21 -258l131 258h189l-284 -517h-171l-13 266l-125 -266h-171z" />
    <glyph glyph-name="Wacute" unicode="&#x1e82;" horiz-adv-x="1076" 
d="M577 744l146 164l165 -28l-180 -136h-131zM145 0l-48 687h206v-397l217 397h209l48 -397l168 397h212l-333 -687h-196l-58 397l-229 -397h-196z" />
    <glyph glyph-name="wacute" unicode="&#x1e83;" horiz-adv-x="847" 
d="M420 574l146 164l165 -28l-180 -136h-131zM131 0l-70 517h181l22 -258l132 258h158l21 -258l131 258h189l-284 -517h-171l-13 266l-125 -266h-171z" />
    <glyph glyph-name="Wdieresis" unicode="&#x1e84;" horiz-adv-x="1076" 
d="M538 745q-37 0 -59 23t-22 58q0 39 27.5 65.5t64.5 26.5q34 0 56.5 -24t22.5 -58q0 -38 -27.5 -64.5t-62.5 -26.5zM763 745q-36 0 -58.5 23.5t-22.5 58.5q0 39 28 65t64 26q35 0 57 -23.5t22 -57.5q0 -39 -27 -65.5t-63 -26.5zM145 0l-48 687h206v-397l217 397h209
l48 -397l168 397h212l-333 -687h-196l-58 397l-229 -397h-196z" />
    <glyph glyph-name="wdieresis" unicode="&#x1e85;" horiz-adv-x="847" 
d="M388 575q-37 0 -59 23t-22 58q0 39 27.5 65.5t64.5 26.5q34 0 56.5 -24t22.5 -58q0 -38 -27.5 -64.5t-62.5 -26.5zM613 575q-36 0 -58.5 23.5t-22.5 58.5q0 39 28 65t64 26q35 0 57 -23.5t22 -57.5q0 -39 -27 -65.5t-63 -26.5zM131 0l-70 517h181l22 -258l132 258h158
l21 -258l131 258h189l-284 -517h-171l-13 266l-125 -266h-171z" />
    <glyph glyph-name="uni1EB8" unicode="&#x1eb8;" horiz-adv-x="651" 
d="M666 514h-359l-15 -77h326l-36 -173h-327l-18 -91h358l-36 -173h-553l143 687h553zM264 -21q34 0 56.5 -24t22.5 -58q0 -38 -27.5 -64.5t-62.5 -26.5q-37 0 -59 23t-22 58q0 39 27.5 65.5t64.5 26.5z" />
    <glyph glyph-name="uni1EB9" unicode="&#x1eb9;" horiz-adv-x="600" 
d="M545 388q0 -87 -67.5 -133t-188.5 -42h-104q0 -38 20 -59.5t55 -21.5q63 0 131 48l93 -117q-41 -34 -103 -54.5t-118 -20.5q-110 0 -175 61t-65 161q0 133 92.5 226t227.5 93q89 0 145.5 -39.5t56.5 -101.5zM338 385q-72 0 -120 -71h92q78 0 80 45q0 11 -15 18.5t-37 7.5
zM199 -64q34 0 56.5 -24t22.5 -58q0 -38 -27.5 -64.5t-62.5 -26.5q-37 0 -59 23t-22 58q0 39 27.5 65.5t64.5 26.5z" />
    <glyph glyph-name="uni1EBC" unicode="&#x1ebc;" horiz-adv-x="651" 
d="M394 782q-38 0 -58 -49l-86 27q22 71 54.5 102.5t82.5 31.5q35 0 77 -20.5t47 -20.5q39 0 58 49l87 -28q-22 -71 -54.5 -102t-82.5 -31q-36 0 -78 20.5t-47 20.5zM666 514h-359l-15 -77h326l-36 -173h-327l-18 -91h358l-36 -173h-553l143 687h553z" />
    <glyph glyph-name="uni1EBD" unicode="&#x1ebd;" horiz-adv-x="560" 
d="M313 612q-38 0 -58 -49l-86 27q22 71 54.5 102.5t82.5 31.5q35 0 77 -20.5t47 -20.5q39 0 58 49l87 -28q-22 -71 -54.5 -102t-82.5 -31q-36 0 -78 20.5t-47 20.5zM343 529q89 0 145.5 -39.5t56.5 -101.5q0 -87 -67.5 -133t-188.5 -42h-104q0 -38 20 -59.5t55 -21.5
q63 0 131 48l93 -117q-41 -34 -103 -54.5t-118 -20.5q-110 0 -175 61t-65 161q0 133 92.5 226t227.5 93zM310 314q78 0 80 45q0 11 -15 18.5t-37 7.5q-72 0 -120 -71h92z" />
    <glyph glyph-name="Ygrave" unicode="&#x1ef2;" horiz-adv-x="709" 
d="M422 744l-124 136l167 28l78 -164h-121zM201 0l50 226l-168 461h180l106 -293l217 293h218l-359 -461l-50 -226h-194z" />
    <glyph glyph-name="ygrave" unicode="&#x1ef3;" horiz-adv-x="607" 
d="M355 574l-124 136l167 28l78 -164h-121zM116 -180q-38 0 -82 13.5t-74 32.5l54 116q39 -25 66 -25q15 0 35.5 8t24.5 15l17 13l-98 524h193l38 -319l168 319h198l-305 -528q-48 -83 -109 -126t-126 -43z" />
    <glyph glyph-name="endash" unicode="&#x2013;" horiz-adv-x="568" 
d="M26 200l33 156h491l-33 -156h-491z" />
    <glyph glyph-name="emdash" unicode="&#x2014;" horiz-adv-x="873" 
d="M26 200l33 156h796l-33 -156h-796z" />
    <glyph glyph-name="quoteleft" unicode="&#x2018;" horiz-adv-x="312" 
d="M251 709l63 -58q-57 -38 -96 -97q39 0 65 -26.5t26 -68.5q0 -51 -38.5 -90t-86.5 -39q-46 0 -73 33t-27 88q0 137 167 258z" />
    <glyph glyph-name="quoteright" unicode="&#x2019;" horiz-adv-x="312" 
d="M169 326l-63 58q57 38 96 97q-39 0 -65 26.5t-26 68.5q0 51 38.5 90t86.5 39q46 0 73 -33t27 -88q0 -137 -167 -258z" />
    <glyph glyph-name="quotedblleft" unicode="&#x201c;" horiz-adv-x="612" 
d="M249 700l63 -58q-57 -38 -96 -97q39 0 65 -26.5t26 -68.5q0 -51 -38.5 -90t-86.5 -39q-46 0 -73 33t-27 88q0 137 167 258zM549 700l63 -58q-57 -38 -96 -97q39 0 65 -26.5t26 -68.5q0 -51 -38.5 -90t-86.5 -39q-46 0 -73 33t-27 88q0 137 167 258z" />
    <glyph glyph-name="quotedblright" unicode="&#x201d;" horiz-adv-x="612" 
d="M169 326l-63 58q57 38 96 97q-39 0 -65 26.5t-26 68.5q0 51 38.5 90t86.5 39q46 0 73 -33t27 -88q0 -137 -167 -258zM469 326l-63 58q57 38 96 97q-39 0 -65 26.5t-26 68.5q0 51 38.5 90t86.5 39q46 0 73 -33t27 -88q0 -137 -167 -258z" />
    <glyph glyph-name="ellipsis" unicode="&#x2026;" horiz-adv-x="915" 
d="M115 -12q-47 0 -76 30t-29 75q0 53 39 89.5t90 36.5q44 0 72.5 -30t28.5 -73q0 -52 -38 -90t-87 -38zM415 -12q-47 0 -76 30t-29 75q0 53 39 89.5t90 36.5q44 0 72.5 -30t28.5 -73q0 -52 -38 -90t-87 -38zM715 -12q-47 0 -76 30t-29 75q0 53 39 89.5t90 36.5
q44 0 72.5 -30t28.5 -73q0 -52 -38 -90t-87 -38z" />
    <glyph glyph-name="perthousand" unicode="&#x2030;" horiz-adv-x="1259" 
d="M239 338q-72 0 -114 41.5t-42 107.5q0 85 59.5 146t145.5 61q74 0 116 -42t42 -108q0 -85 -60 -145.5t-147 -60.5zM69 0l626 687h137l-626 -687h-137zM237 445q37 0 63.5 33t26.5 71q0 37 -36 37q-37 0 -63 -33t-26 -71q0 -37 35 -37zM611 -11q-73 0 -115.5 42t-42.5 108
q0 85 60.5 146t146.5 61q72 0 114 -42.5t42 -108.5q0 -84 -60 -145t-145 -61zM1005 -11q-73 0 -115.5 42t-42.5 108q0 85 60.5 146t146.5 61q72 0 114 -42.5t42 -108.5q0 -84 -60 -145t-145 -61zM608 97q37 0 63.5 33t26.5 70q0 38 -36 38q-38 0 -64 -33t-26 -71
q0 -37 36 -37zM1002 97q37 0 63.5 33t26.5 70q0 38 -36 38q-38 0 -64 -33t-26 -71q0 -37 36 -37z" />
    <glyph glyph-name="Euro" unicode="&#x20ac;" horiz-adv-x="711" 
d="M377 164q39 0 84 21.5t76 54.5l123 -136q-57 -51 -140 -83.5t-158 -32.5q-115 0 -202.5 73.5t-106.5 185.5h-66l16 77h47q1 21 8 48h-45l16 77h56q52 108 161.5 179t232.5 71q85 0 157 -35t115 -91l-160 -114q-38 64 -121 64q-89 0 -161 -74h186l-16 -77h-219
q-10 -28 -13 -48h222l-16 -77h-197q15 -39 48.5 -61t72.5 -22z" />
    <glyph glyph-name="minus" unicode="&#x2212;" horiz-adv-x="609" 
d="M55 259l31 149h499l-31 -149h-499z" />
    <glyph glyph-name="a.alt" horiz-adv-x="587" 
d="M345 529q92 0 150.5 -49.5t58.5 -132.5q0 -5 -0.5 -9.5t-1 -10t-2 -14t-3 -17.5t-4.5 -25t-6.5 -31.5t-9 -42t-11 -52t-14 -66t-16.5 -79.5h-185l6 29q-58 -41 -129 -41q-78 0 -127.5 41t-49.5 106q0 84 74 137t173 53q58 0 114 -28q6 28 6 32q0 47 -82 47
q-66 0 -134 -33l-48 128q127 58 241 58zM334 171l2 -3l6 28q-25 12 -67 12q-34 0 -62 -22.5t-28 -48.5q0 -25 41 -25q39 0 70.5 18t37.5 41z" />
    <glyph glyph-name="aacute.alt" horiz-adv-x="587" 
d="M560 710l-180 -136h-131l146 164zM345 529q92 0 150.5 -49.5t58.5 -132.5q0 -5 -0.5 -9.5t-1 -10t-2 -14t-3 -17.5t-4.5 -25t-6.5 -31.5t-9 -42t-11 -52t-14 -66t-16.5 -79.5h-185l6 29q-58 -41 -129 -41q-78 0 -127.5 41t-49.5 106q0 84 74 137t173 53q58 0 114 -28
q6 28 6 32q0 47 -82 47q-66 0 -134 -33l-48 128q127 58 241 58zM334 171l2 -3l6 28q-25 12 -67 12q-34 0 -62 -22.5t-28 -48.5q0 -25 41 -25q39 0 70.5 18t37.5 41z" />
    <glyph glyph-name="abreve.alt" horiz-adv-x="587" 
d="M372 575q-99 0 -156 71l89 74q35 -43 88 -43q55 0 106 43l59 -74q-86 -71 -186 -71zM345 529q92 0 150.5 -49.5t58.5 -132.5q0 -5 -0.5 -9.5t-1 -10t-2 -14t-3 -17.5t-4.5 -25t-6.5 -31.5t-9 -42t-11 -52t-14 -66t-16.5 -79.5h-185l6 29q-58 -41 -129 -41
q-78 0 -127.5 41t-49.5 106q0 84 74 137t173 53q58 0 114 -28q6 28 6 32q0 47 -82 47q-66 0 -134 -33l-48 128q127 58 241 58zM334 171l2 -3l6 28q-25 12 -67 12q-34 0 -62 -22.5t-28 -48.5q0 -25 41 -25q39 0 70.5 18t37.5 41z" />
    <glyph glyph-name="acircumflex.alt" horiz-adv-x="587" 
d="M389 641l-89 -67h-117l140 154h155l77 -154h-108zM345 529q92 0 150.5 -49.5t58.5 -132.5q0 -5 -0.5 -9.5t-1 -10t-2 -14t-3 -17.5t-4.5 -25t-6.5 -31.5t-9 -42t-11 -52t-14 -66t-16.5 -79.5h-185l6 29q-58 -41 -129 -41q-78 0 -127.5 41t-49.5 106q0 84 74 137t173 53
q58 0 114 -28q6 28 6 32q0 47 -82 47q-66 0 -134 -33l-48 128q127 58 241 58zM334 171l2 -3l6 28q-25 12 -67 12q-34 0 -62 -22.5t-28 -48.5q0 -25 41 -25q39 0 70.5 18t37.5 41z" />
    <glyph glyph-name="adieresis.alt" horiz-adv-x="587" 
d="M272 575q-37 0 -59 23t-22 58q0 39 27.5 65.5t64.5 26.5q34 0 56.5 -24t22.5 -58q0 -38 -27.5 -64.5t-62.5 -26.5zM508 748q35 0 57 -23.5t22 -57.5q0 -39 -27 -65.5t-63 -26.5t-58.5 23.5t-22.5 58.5q0 39 28 65t64 26zM345 529q92 0 150.5 -49.5t58.5 -132.5
q0 -5 -0.5 -9.5t-1 -10t-2 -14t-3 -17.5t-4.5 -25t-6.5 -31.5t-9 -42t-11 -52t-14 -66t-16.5 -79.5h-185l6 29q-58 -41 -129 -41q-78 0 -127.5 41t-49.5 106q0 84 74 137t173 53q58 0 114 -28q6 28 6 32q0 47 -82 47q-66 0 -134 -33l-48 128q127 58 241 58zM334 171l2 -3
l6 28q-25 12 -67 12q-34 0 -62 -22.5t-28 -48.5q0 -25 41 -25q39 0 70.5 18t37.5 41z" />
    <glyph glyph-name="agrave.alt" horiz-adv-x="587" 
d="M477 574h-121l-124 136l167 28zM345 529q92 0 150.5 -49.5t58.5 -132.5q0 -5 -0.5 -9.5t-1 -10t-2 -14t-3 -17.5t-4.5 -25t-6.5 -31.5t-9 -42t-11 -52t-14 -66t-16.5 -79.5h-185l6 29q-58 -41 -129 -41q-78 0 -127.5 41t-49.5 106q0 84 74 137t173 53q58 0 114 -28
q6 28 6 32q0 47 -82 47q-66 0 -134 -33l-48 128q127 58 241 58zM334 171l2 -3l6 28q-25 12 -67 12q-34 0 -62 -22.5t-28 -48.5q0 -25 41 -25q39 0 70.5 18t37.5 41z" />
    <glyph glyph-name="amacron.alt" horiz-adv-x="587" 
d="M208 679h369l-22 -106h-369zM345 529q92 0 150.5 -49.5t58.5 -132.5q0 -5 -0.5 -9.5t-1 -10t-2 -14t-3 -17.5t-4.5 -25t-6.5 -31.5t-9 -42t-11 -52t-14 -66t-16.5 -79.5h-185l6 29q-58 -41 -129 -41q-78 0 -127.5 41t-49.5 106q0 84 74 137t173 53q58 0 114 -28
q6 28 6 32q0 47 -82 47q-66 0 -134 -33l-48 128q127 58 241 58zM334 171l2 -3l6 28q-25 12 -67 12q-34 0 -62 -22.5t-28 -48.5q0 -25 41 -25q39 0 70.5 18t37.5 41z" />
    <glyph glyph-name="aogonek.alt" horiz-adv-x="587" 
d="M457 -66q28 0 44 16l13 -93q-39 -30 -91 -30q-47 0 -74 26.5t-27 73.5q0 42 22 73h-43l6 29q-58 -41 -129 -41q-78 0 -127.5 41t-49.5 106q0 84 74 137t173 53q58 0 114 -28q6 28 6 32q0 47 -82 47q-66 0 -134 -33l-48 128q127 58 241 58q92 0 150.5 -49.5t58.5 -132.5
q0 -5 -0.5 -9.5t-1 -10t-2 -14t-3 -17.5t-4.5 -24.5t-6.5 -31t-9 -41.5t-10.5 -51.5t-13.5 -65.5t-16.5 -79l6 -3q-22 0 -39 -13.5t-17 -31.5q0 -21 20 -21zM334 171l2 -3l6 28q-25 12 -67 12q-34 0 -62 -22.5t-28 -48.5q0 -25 41 -25q39 0 70.5 18t37.5 41z" />
    <glyph glyph-name="aring.alt" horiz-adv-x="587" 
d="M371 575q-43 0 -71 27.5t-28 68.5q0 58 46 102t103 44q43 0 71 -27.5t28 -68.5q0 -58 -46 -102t-103 -44zM406 745q-23 0 -41.5 -17.5t-18.5 -40.5q0 -17 11 -28.5t29 -11.5q23 0 41.5 18t18.5 41q0 17 -11.5 28t-28.5 11zM345 529q92 0 150.5 -49.5t58.5 -132.5
q0 -5 -0.5 -9.5t-1 -10t-2 -14t-3 -17.5t-4.5 -25t-6.5 -31.5t-9 -42t-11 -52t-14 -66t-16.5 -79.5h-185l6 29q-58 -41 -129 -41q-78 0 -127.5 41t-49.5 106q0 84 74 137t173 53q58 0 114 -28q6 28 6 32q0 47 -82 47q-66 0 -134 -33l-48 128q127 58 241 58zM334 171l2 -3
l6 28q-25 12 -67 12q-34 0 -62 -22.5t-28 -48.5q0 -25 41 -25q39 0 70.5 18t37.5 41z" />
    <glyph glyph-name="atilde.alt" horiz-adv-x="587" 
d="M327 612q-38 0 -58 -49l-86 27q22 71 54.5 102.5t82.5 31.5q35 0 77 -20.5t47 -20.5q39 0 58 49l87 -28q-22 -71 -54.5 -102t-82.5 -31q-36 0 -78 20.5t-47 20.5zM345 529q92 0 150.5 -49.5t58.5 -132.5q0 -5 -0.5 -9.5t-1 -10t-2 -14t-3 -17.5t-4.5 -25t-6.5 -31.5
t-9 -42t-11 -52t-14 -66t-16.5 -79.5h-185l6 29q-58 -41 -129 -41q-78 0 -127.5 41t-49.5 106q0 84 74 137t173 53q58 0 114 -28q6 28 6 32q0 47 -82 47q-66 0 -134 -33l-48 128q127 58 241 58zM334 171l2 -3l6 28q-25 12 -67 12q-34 0 -62 -22.5t-28 -48.5q0 -25 41 -25
q39 0 70.5 18t37.5 41z" />
    <glyph glyph-name="ascender" 
d="M-2 0l145 699h193l-145 -699h-193z" />
    <glyph glyph-name="descender" 
d="M-38 -172l143 689h193l-143 -689h-193z" />
    </font>
</defs>
</svg>
